<?xml version="1.0" standalone="no"?>
<!DOCTYPE svg PUBLIC "-//W3C//DTD SVG 1.1//EN" "http://www.w3.org/Graphics/SVG/1.1/DTD/svg11.dtd" >
<svg xmlns="http://www.w3.org/2000/svg">
<metadata></metadata>
<defs>
<font id="cadenaregular" horiz-adv-x="1056" >
<font-face units-per-em="2048" ascent="1638" descent="-410" />
<missing-glyph horiz-adv-x="428" />
<glyph horiz-adv-x="2048" />
<glyph horiz-adv-x="2048" />
<glyph unicode="&#xd;" horiz-adv-x="681" />
<glyph unicode=" "  horiz-adv-x="428" />
<glyph unicode="&#x09;" horiz-adv-x="428" />
<glyph unicode="&#xa0;" horiz-adv-x="428" />
<glyph unicode="!" horiz-adv-x="630" d="M55 180q0 213 258 213q262 0 262 -213q0 -211 -262 -211q-258 0 -258 211zM70 997q0 397 278 398q53 0 96 -14.5t68 -36t41 -42t20 -34.5l7 -15q-82 -395 -82 -706q-45 -41 -170 -41q-129 0 -193.5 117.5t-64.5 373.5z" />
<glyph unicode="&#x22;" horiz-adv-x="1073" d="M41 760v450q0 203 231 203q51 0 91 -11t60.5 -26.5t34 -32t17.5 -28.5l4 -10q0 -313 -70.5 -442.5t-226.5 -129.5q-33 0 -68.5 6t-54.5 15zM594 760v450q0 203 231 203q51 0 91 -11t60.5 -26.5t34 -32t17.5 -28.5l4 -10q0 -313 -70.5 -442.5t-226.5 -129.5q-33 0 -68.5 6 t-54.5 15z" />
<glyph unicode="#" horiz-adv-x="1210" d="M27 398q-4 42 2 84t16 71l10 29q70 2 170 6q8 68 21 198h-37q-61 0 -94 29t-37 71t2 84t16 70l10 29q68 2 168 6l7 66q10 111 44.5 151.5t123.5 40.5q41 0 71.5 -7t40.5 -15l12 -8q-10 -90 -24 -218l178 7l4 49q10 111 44 151.5t122 40.5q41 0 72.5 -7t42.5 -15l12 -8 q-12 -84 -27 -205q74 -2 113 -34t40 -78t-8 -92t-24 -79l-16 -31h-141q-12 -111 -21 -174h2q76 0 116 -32.5t41 -78.5t-8.5 -91.5t-25.5 -77.5l-14 -33h-146q-4 -45 -4 -57q-12 -145 -51 -192.5t-117 -47.5q-43 0 -72.5 7t-37.5 16l-11 8q12 113 29 268h-180q-4 -45 -4 -57 q-12 -145 -52 -200.5t-116 -55.5q-43 0 -73 7t-40 15l-8 8q12 119 29 283h-39q-61 0 -94 28.5t-37 70.5zM494 598l180 6q8 55 20 182h-180z" />
<glyph unicode="$" horiz-adv-x="1126" d="M47 231q0 41 11.5 74t26.5 50.5t30.5 29.5t27.5 16l11 5q150 -86 352 -87q172 0 172 84q0 39 -35 57.5t-90 22.5t-121.5 6.5t-133.5 19.5t-122 52t-90 112.5t-35 192.5q0 188 104.5 313.5t309.5 161.5q-10 37 -10 89q0 84 35.5 121.5t115.5 37.5q33 0 61.5 -7t41.5 -13 l12 -8q0 -96 -6 -205q113 -4 196.5 -20.5t110.5 -32.5l27 -15q2 -8 5 -20.5t9 -49t7 -69.5t-8 -74t-28.5 -69.5t-60.5 -49t-101 -20.5q-51 0 -125.5 14.5t-123.5 14.5q-82 0 -118 -19.5t-36 -66.5q0 -45 46 -63.5t116.5 -14.5t151.5 -5.5t152 -32t117 -98t46 -200.5 q0 -178 -95.5 -305t-291.5 -170q16 -33 16 -90q0 -156 -152 -156q-33 0 -61.5 7t-40.5 16l-12 6q0 94 6 198q-213 6 -316.5 75t-103.5 185z" />
<glyph unicode="%" horiz-adv-x="1908" d="M47 911q0 211 98.5 331t307.5 120q358 0 358 -408q0 -205 -109.5 -316.5t-283.5 -111.5q-168 0 -269.5 105.5t-101.5 279.5zM371 938q0 -106 20.5 -145t57.5 -39q41 0 58 42t17 144q0 98 -18.5 134t-61.5 36q-37 0 -55 -35t-18 -137zM571 258l600 1120q8 2 22.5 4t52.5 1 t65.5 -11t51 -42t23.5 -81q0 -33 -3 -51t-10 -44t-29.5 -65.5t-51 -89t-88 -144.5t-125 -202.5t-175 -291t-228.5 -384.5q-12 -8 -47 -8q-212 0 -58 289zM1079 369q0 211 98.5 330.5t307.5 119.5q358 0 358 -407q0 -205 -109.5 -316.5t-283.5 -111.5q-168 0 -269.5 105.5 t-101.5 279.5zM1403 395q0 -106 20.5 -145t57.5 -39q41 0 58 42t17 144q0 98 -18 134t-61 36q-37 0 -55.5 -34.5t-18.5 -137.5z" />
<glyph unicode="&#x26;" horiz-adv-x="1482" d="M43 371q0 162 87 255t216 97q-121 190 -121 324q0 176 122 283.5t325 107.5q205 0 320.5 -99.5t115.5 -279.5q0 -145 -82 -240.5t-203 -95.5q-35 0 -57 8q90 -109 244 -244q49 115 39 273q14 31 108 31q72 0 113 -59.5t41 -156.5q0 -137 -76 -266l180 -127q2 -8 2 -22.5 t-6 -51t-22.5 -65.5t-56.5 -51.5t-97 -22.5q-137 0 -274 92q-180 -92 -410 -92q-240 0 -374 104.5t-134 297.5zM438 410q0 -80 51.5 -122t143.5 -42q63 0 102 10q-152 152 -254 281q-43 -51 -43 -127zM608 1053q0 -102 94 -238q35 49 54.5 101.5t21.5 95.5t-6 76.5t-28.5 53 t-47.5 19.5q-49 0 -68.5 -26.5t-19.5 -81.5z" />
<glyph unicode="'" horiz-adv-x="520" d="M41 760v450q0 203 231 203q51 0 91 -11t60.5 -26.5t34 -32t17.5 -28.5l4 -10q0 -313 -70.5 -442.5t-226.5 -129.5q-33 0 -68.5 6t-54.5 15z" />
<glyph unicode="(" horiz-adv-x="743" d="M63 705q0 328 116 546.5t298 218.5q98 0 150.5 -51t56.5 -100l2 -51q-8 -8 -19.5 -23.5t-42 -72t-54 -121t-43 -171t-19.5 -221.5q0 -131 17.5 -253.5t43 -206.5t51 -149.5t44.5 -96.5l16 -31q0 -4 -1 -13t-10.5 -30.5t-25.5 -38t-51 -30t-82 -13.5q-174 0 -310.5 247 t-136.5 661z" />
<glyph unicode=")" horiz-adv-x="743" d="M57 0q8 8 19.5 23.5t42.5 72t54.5 121t43 171t19.5 220.5q0 131 -17.5 254t-43 207t-51.5 149.5t-42 96.5l-19 31q0 4 1.5 13t10.5 30.5t25.5 38t51 29.5t81.5 13q174 0 310.5 -246.5t136.5 -660.5q0 -328 -115.5 -547t-298.5 -219q-63 0 -107 20.5t-62.5 50.5t-29 60.5 t-10.5 51.5v20z" />
<glyph unicode="*" horiz-adv-x="905" d="M55 1098q0 66 38 101.5t104 35.5q72 0 143 -39l10 223q41 27 109 27q156 0 155 -162q0 -47 -12 -104l176 41q8 -4 21.5 -12.5t36 -45.5t22.5 -84q0 -150 -217 -149l117 -154q0 -6 -3 -14t-14.5 -29.5t-27 -39t-44 -31t-65.5 -13.5q-125 0 -186 164l-117 -154 q-61 0 -111.5 40t-50.5 108q0 94 105 172l-174 39q-14 41 -15 80z" />
<glyph unicode="+" d="M70 659q0 41 12 79t24 55l15 16h252v156q0 147 164 147q41 0 78.5 -13.5t54.5 -25.5l16 -12v-252h168q135 0 135 -162q0 -49 -16.5 -87t-32.5 -52l-16 -12h-238v-168q0 -135 -162 -135q-49 0 -87 16t-52 33l-12 16v238h-156q-147 0 -147 163z" />
<glyph unicode="," horiz-adv-x="643" d="M61 180q0 100 70 156.5t188 56.5q263 0 263 -305q0 -168 -82 -275.5t-211 -107.5q-51 0 -88 16.5t-47 32.5l-11 17q43 76 43 170q0 70 -30.5 129t-61.5 86z" />
<glyph unicode="-" horiz-adv-x="1013" d="M49 662q0 41 18.5 73.5t36.5 44.5l19 13q193 10 333 11t232 -10.5t148.5 -26.5t84 -45t36 -58.5t8.5 -75.5q0 -41 -18.5 -75t-37.5 -46l-18 -14q-164 -8 -292 -8.5t-216 5t-150.5 20.5t-98.5 32.5t-55.5 45t-24.5 52.5t-5 62z" />
<glyph unicode="." horiz-adv-x="643" d="M61 180q0 213 258 213q263 0 263 -213q0 -211 -263 -211q-258 0 -258 211z" />
<glyph unicode="/" horiz-adv-x="894" d="M-10 -98q350 1049 426 1274q51 147 103 203.5t163 56.5q49 0 86 -16.5t55.5 -40t30.5 -47t14 -40.5l2 -16l-450 -1202q-51 -137 -103.5 -197.5t-146.5 -60.5q-63 0 -108.5 21.5t-57.5 43.5z" />
<glyph unicode="0" horiz-adv-x="1275" d="M41 659q0 328 154.5 513.5t455.5 185.5q293 0 438.5 -191.5t145.5 -498.5q0 -305 -154.5 -502t-449.5 -197t-442.5 190.5t-147.5 499.5zM500 666q0 -111 10 -180.5t33.5 -100.5t47 -39t64.5 -8q49 0 78 17.5t52.5 93.5t23.5 219q0 186 -39 244.5t-117 58.5 q-76 0 -114.5 -62.5t-38.5 -242.5z" />
<glyph unicode="1" horiz-adv-x="909" d="M51 1057q0 49 9.5 83t17.5 44l8 8q297 141 399 141q240 0 240 -119v-874l127 -12q35 -27 35 -135q0 -111 -75 -161t-286 -50q-55 0 -166.5 9t-195.5 17l-86 10q-23 12 -23 127q0 86 42 136.5t155 68.5v531q-201 0 -201 176z" />
<glyph unicode="2" horiz-adv-x="1052" d="M23 1114q0 47 8 84t16 51l8 15q16 10 49 26.5t153 44t261 27.5q233 0 353 -111.5t120 -324.5q0 -96 -45 -190.5t-102.5 -158t-129 -120t-107.5 -78t-54 -31.5h440q37 -47 37 -137q0 -211 -272 -211h-531q-72 0 -115.5 34t-56 83t-14.5 98t4 84l8 33q18 14 50 37.5t114 90 t143.5 128t112.5 136.5t51 128q0 117 -145 117q-59 0 -122.5 -21.5t-104.5 -21.5q-66 0 -97.5 57t-31.5 131z" />
<glyph unicode="3" horiz-adv-x="1052" d="M33 211q0 41 9 73.5t22.5 50t27.5 29t23 15.5l10 4q152 -82 293 -82q193 0 192 107q0 55 -85 74.5t-298 19.5q-8 6 -21 16t-34.5 50t-21.5 87q0 31 4 51.5t25.5 45t45 41t88 48t128 59.5t186.5 79h-412q-176 0 -176 184q0 49 15.5 91t29.5 61l14 18h736q66 0 119 -66.5 t55 -172.5q0 -137 -74 -226.5t-268 -169.5q188 -20 270 -94t82 -221q0 -199 -148.5 -306.5t-414.5 -107.5q-197 0 -309.5 64.5t-112.5 177.5z" />
<glyph unicode="4" horiz-adv-x="1247" d="M12 434q0 29 4 55.5t9 38.5l2 15l327 581q41 72 81 113t117 67.5t191 26.5q98 0 175 -19.5t106 -37.5l27 -21v-708h133q31 -53 30 -135q0 -86 -31.5 -126t-131.5 -40v-142q0 -72 -50.5 -103.5t-166.5 -31.5q-231 0 -232 135v140h-289q-301 0 -301 192zM377 535h225v436z " />
<glyph unicode="5" horiz-adv-x="1052" d="M35 201q0 59 25.5 100t52.5 51l26 10q141 -59 285 -59q80 0 128 26.5t48 78.5q0 47 -41 72.5t-149.5 42t-329.5 28.5l29 782h831q47 -59 47 -182q0 -188 -190 -188l-340 10l-8 -187q12 2 32.5 5.5t78.5 5.5t111.5 -4.5t118 -29t111.5 -60t79 -108.5t32 -165 q0 -207 -144.5 -334t-398.5 -127q-434 0 -434 232z" />
<glyph unicode="6" horiz-adv-x="1193" d="M39 532q0 197 86 385.5t244.5 314.5t349.5 126q82 0 129 -34t53 -69l6 -34q-18 -12 -48 -37t-103.5 -107t-126.5 -170q61 13 141 13q184 0 288.5 -114t104.5 -319q0 -242 -150.5 -380t-424.5 -138q-268 0 -408.5 156t-140.5 407zM502 471q0 -96 23.5 -136t78.5 -40 q59 0 83 41t24 135q0 199 -191 174q-18 -84 -18 -174z" />
<glyph unicode="7" horiz-adv-x="1038" d="M18 1163q0 49 15.5 91t29.5 61l15 18h749q78 0 126 -58t48 -177q0 -53 -18 -125t-59 -169t-71 -163t-86 -183.5t-73 -150.5q-90 -193 -158.5 -258t-203.5 -65q-59 0 -101.5 16t-59.5 41t-25.5 49.5t-6.5 40.5v16l451 832h-395q-176 0 -177 184z" />
<glyph unicode="8" horiz-adv-x="1142" d="M41 360q0 209 197 314q-178 123 -179 291q0 178 135.5 285.5t372.5 107.5q233 0 369.5 -111.5t136.5 -273.5q0 -184 -149 -309q178 -104 178 -289q0 -211 -151.5 -308.5t-409.5 -97.5q-236 0 -368 107.5t-132 283.5zM434 367q0 -61 34 -89t81 -28q108 0 108 106 q0 82 -155 168q-68 -84 -68 -157zM475 930q0 -51 45 -85t133 -69q45 74 45 133q0 74 -27.5 101.5t-84.5 27.5q-111 1 -111 -108z" />
<glyph unicode="9" horiz-adv-x="1193" d="M33 840q0 242 150.5 380t424.5 138q268 0 408.5 -155.5t140.5 -407.5q0 -197 -86 -385.5t-244.5 -314.5t-349.5 -126q-82 0 -129 35t-53 70l-6 32q18 12 48 37t103.5 106t126.5 169q-67 -10 -141 -10q-184 0 -288.5 113.5t-104.5 318.5zM485 856q0 -201 189 -176 q20 92 20 176q0 96 -23.5 136t-78.5 40q-59 0 -83 -41t-24 -135z" />
<glyph unicode=":" horiz-adv-x="665" d="M70 254q0 213 258 213q262 0 262 -213q0 -211 -262 -211q-258 0 -258 211zM70 891q0 213 258 213q262 0 262 -213q0 -211 -262 -211q-258 0 -258 211z" />
<glyph unicode=";" horiz-adv-x="665" d="M61 258q0 100 70 156.5t188 56.5q263 0 263 -305q0 -168 -82 -275.5t-211 -107.5q-51 0 -88 16.5t-47 32.5l-11 16q43 76 43 170q0 70 -30.5 129.5t-61.5 85.5zM70 891q0 213 258 213q262 0 262 -213q0 -211 -262 -211q-258 0 -258 211z" />
<glyph unicode="&#x3c;" horiz-adv-x="815" d="M23 616q0 66 111.5 187t250.5 216t213 95q92 0 137 -53t45 -125q0 -82 -94 -161t-188 -118l-95 -39l388 -237v-25.5t-9.5 -54.5t-27 -69.5t-56.5 -55t-94 -24.5q-119 0 -259 87t-231 196.5t-91 180.5z" />
<glyph unicode="=" horiz-adv-x="1046" d="M37 440q0 59 18.5 100.5t36.5 53.5l19 10h712q86 0 128 -40t42 -136q0 -59 -18.5 -100t-36.5 -54l-18 -10h-715q-84 0 -126 40t-42 136zM37 885q0 59 18.5 100t36.5 51l19 13h712q86 0 128 -40t42 -137q0 -59 -18.5 -100t-36.5 -51l-18 -12h-715q-84 0 -126 39.5 t-42 136.5z" />
<glyph unicode="&#x3e;" horiz-adv-x="815" d="M29 874v25.5t9 54.5t26.5 70t56.5 55.5t94 24.5q119 0 259 -87t231.5 -196.5t91.5 -181.5q0 -66 -112 -186.5t-251 -216t-213 -95.5q-92 0 -137 53.5t-45 124.5q0 51 39 103.5t94 89.5t110.5 66.5t94.5 44.5l39 14z" />
<glyph unicode="?" horiz-adv-x="983" d="M43 1235l18 80q12 8 40 21.5t132.5 35t233.5 21.5q223 0 352 -99.5t129 -283.5q0 -96 -31.5 -166t-88 -115t-116 -80t-131 -82t-118.5 -100q-10 0 -27.5 -1t-62.5 5t-79 19.5t-61.5 47t-27.5 83.5q0 61 29.5 104t71.5 66.5t85 43t73 45t30 62.5q0 41 -19.5 59.5 t-55.5 19.5t-73 -5t-88 -14.5t-86 -8.5q-92 0 -119.5 81t-9.5 161zM156 180q0 213 258 213q262 0 262 -213q0 -211 -262 -211q-258 0 -258 211z" />
<glyph unicode="@" horiz-adv-x="1783" d="M53 365q0 473 266.5 758.5t720.5 285.5q346 0 522.5 -166t176.5 -469q0 -322 -146.5 -511t-396.5 -189q-133 0 -201 67q-55 -98 -227 -98q-141 0 -221 90t-80 273q0 266 144.5 446t392.5 180q299 0 299 -299q0 -39 -11.5 -96t-24 -105.5t-21.5 -92.5t-4 -69.5t28 -25.5 q31 0 66.5 42t65.5 143.5t30 238.5q0 195 -98.5 294t-336.5 99q-276 0 -461.5 -217t-185.5 -573q0 -137 36 -235.5t97.5 -147.5t126 -70.5t138.5 -21.5q76 0 173 18t132 18q88 0 119.5 -56t1.5 -152q-10 -10 -36 -26.5t-140.5 -43.5t-272.5 -27q-319 0 -495.5 201 t-176.5 537zM774 416q0 -127 86 -127q25 0 66 12q-2 12 -2 41q0 72 13 147.5t27.5 122.5t22.5 87t-4 57.5t-49 17.5q-55 0 -107.5 -104.5t-52.5 -253.5z" />
<glyph unicode="A" horiz-adv-x="1251" d="M18 98q123 707 230 1045q66 207 373 207q315 0 380 -207q59 -182 134 -531.5t75 -451.5q0 -80 -58 -127t-183 -47q-121 0 -171.5 43t-66.5 143l-8 49h-264l-6 -47q-12 -100 -66.5 -144t-167.5 -44q-51 0 -91 11t-59.5 27.5t-31.5 34t-17 27.5zM500 512h178 q-12 84 -23.5 172t-16.5 131t-12.5 83t-16.5 53.5t-23 13.5q-6 0 -12.5 -4.5t-10.5 -15.5t-8 -24.5t-7 -37t-7 -47t-8.5 -60.5t-8.5 -73.5t-11 -89t-13 -101.5z" />
<glyph unicode="B" horiz-adv-x="1255" d="M78 297v854q0 123 113.5 167t418.5 44q272 0 408.5 -102.5t136.5 -292.5q0 -59 -13.5 -108.5t-32.5 -79t-39.5 -51t-33.5 -30.5l-14 -8q8 -2 21.5 -8t46 -29.5t58.5 -53.5t47.5 -81t21.5 -112q0 -207 -157 -321t-474 -114q-164 0 -271.5 28t-155.5 79t-64.5 101 t-16.5 118zM532 311q43 -16 119 -16q68 0 104 29.5t36 74.5q-1 80 -65 108q-46 20 -92 20q-18 0 -36 -3l-66 -12v-201zM532 745q33 12 82.5 24.5t71 20t38.5 33t17 70.5q0 119 -129 119l-80 -4v-263z" />
<glyph unicode="C" horiz-adv-x="1099" d="M41 639q0 360 175 539.5t476 179.5q113 0 203 -18.5t125 -36.5l33 -19q4 -14 8 -38t7 -84q1 -14 1 -27q0 -44 -8 -80q-10 -47 -45 -85t-96 -38q-49 0 -118 11t-102 11q-90 0 -130 -59t-40 -217q0 -176 60.5 -253t177.5 -77q47 0 104.5 10.5t90.5 20.5l34 10 q8 -4 19.5 -12t30 -47t18.5 -92q0 -268 -410 -269q-281 0 -447.5 177.5t-166.5 492.5z" />
<glyph unicode="D" horiz-adv-x="1314" d="M86 242v878q0 133 107.5 187.5t412.5 54.5q330 0 499 -173t169 -497q0 -360 -181.5 -541.5t-482.5 -181.5q-283 0 -403.5 77t-120.5 196zM547 348q33 -10 88 -10q166 0 166 313q0 188 -43 256t-129 68q-27 0 -47.5 -2t-28.5 -6l-6 -2v-617z" />
<glyph unicode="E" horiz-adv-x="1069" d="M84 207v989q0 59 46 98t112 39h678q59 -53 59 -172q-4 -113 -47 -158t-164 -45h-238v-167h381q90 0 90 -140q0 -94 -52 -134t-175 -40h-244v-164h449q47 -33 47 -125q0 -111 -55.5 -157.5t-208.5 -46.5h-334q-197 0 -270.5 57t-73.5 166z" />
<glyph unicode="F" horiz-adv-x="1038" d="M84 106v1090q0 59 46 98t112 39h669q59 -53 60 -172q-4 -113 -47 -158t-164 -45h-230v-219h381q90 0 90 -139q0 -94 -52 -134t-175 -40h-219v-320q0 -66 -53 -94t-180 -28q-238 0 -238 122z" />
<glyph unicode="G" horiz-adv-x="1220" d="M41 639q0 360 175 539.5t476 179.5q113 0 213.5 -16.5t143.5 -32.5l45 -17q4 -14 9 -38.5t7 -85.5v-21q0 -49 -8 -87q-10 -46 -51 -85t-111 -39q-49 0 -128 11t-112 11q-90 0 -130 -60t-40 -220q0 -186 53.5 -262t161.5 -76q31 0 48 2v342q51 47 184 47q109 0 156 -53 t47 -180q0 -152 -20.5 -244t-78 -160.5t-160 -96.5t-266.5 -28q-281 0 -447.5 177.5t-166.5 492.5z" />
<glyph unicode="H" horiz-adv-x="1341" d="M86 106v1108q0 63 54.5 91t178.5 28q240 0 240 -119v-454h223v454q0 63 54.5 91t179.5 28q239 0 239 -119v-1108q0 -66 -54 -94t-181 -28q-238 0 -238 122v343h-223v-343q0 -66 -54 -94t-181 -28q-238 0 -238 122z" />
<glyph unicode="I" horiz-adv-x="657" d="M92 106v1108q0 63 54.5 91t179.5 28q239 0 239 -119v-1108q0 -66 -54 -94t-181 -28q-238 0 -238 122z" />
<glyph unicode="J" horiz-adv-x="657" d="M-8 -63l27.5 27.5t45 75.5t27.5 118v1056q0 63 54.5 91t179.5 28q239 0 239 -119v-1105q0 -170 -86 -267.5t-243 -97.5q-70 0 -120 19.5t-73 48t-36 57.5t-15 49v19z" />
<glyph unicode="K" horiz-adv-x="1261" d="M84 106v1108q0 63 54.5 91t178.5 28q240 0 240 -119v-475l209 461q23 49 48.5 77t77.5 45t138 17q111 0 150 -27.5t39 -80.5q0 -66 -103 -256q-53 -98 -139 -240l280 -579q0 -6 -2 -18.5t-14 -42t-34.5 -52.5t-69.5 -41t-113 -18q-121 0 -185.5 45t-113.5 147 q-51 100 -168 397v-467q0 -66 -54 -94t-181 -28q-238 0 -238 122z" />
<glyph unicode="L" horiz-adv-x="886" d="M84 207l2 1010q0 61 53.5 88.5t175.5 27.5q121 0 176.5 -27.5t55.5 -88.5l-2 -904h289q47 -33 47 -125q0 -106 -57.5 -155t-186.5 -49h-209q-197 0 -270.5 57t-73.5 166z" />
<glyph unicode="M" horiz-adv-x="1859" d="M59 80q27 741 60 1053q12 115 84.5 171t253.5 56q176 0 246.5 -58.5t89.5 -177.5l131 -768l141 777q18 119 89.5 173t264.5 54q301 0 324 -232q16 -160 30.5 -407.5t20.5 -413.5l8 -168q0 -155 -208 -155h-3q-82 0 -136 24.5t-66 48.5l-15 23l-24 934l-152 -826 q-14 -94 -91 -149t-200 -55q-272 0 -309 209l-166 835l-12 -919q-2 -125 -189 -125q-41 0 -73.5 10t-50 24.5t-28.5 27.5t-16 24z" />
<glyph unicode="N" horiz-adv-x="1333" d="M82 121v991q0 133 70.5 177t238.5 44q84 0 135.5 -12t86 -48t54 -76t50.5 -120q6 -14 8 -22l197 -512q-39 227 -39 653q0 74 42 105.5t144 31.5q94 0 138 -32.5t44 -104.5v-971q0 -125 -65.5 -183t-239.5 -58q-131 0 -194.5 61t-122.5 213l-213 535q39 -227 39 -672 q0 -72 -46.5 -104.5t-144.5 -32.5q-94 0 -138 32.5t-44 104.5z" />
<glyph unicode="O" horiz-adv-x="1353" d="M41 657q0 330 166 515.5t485 185.5q309 0 465 -191.5t156 -498.5q0 -305 -165 -503t-478.5 -198t-471 190.5t-157.5 499.5zM526 659q0 -219 35 -293.5t115 -74.5q72 0 107.5 79t35.5 292q0 197 -35.5 271.5t-111.5 74.5q-74 0 -110 -79t-36 -270z" />
<glyph unicode="P" horiz-adv-x="1228" d="M86 106v1043q0 123 106.5 166t385.5 43q295 0 462.5 -144.5t167.5 -392.5q0 -246 -143 -382t-401 -136l-105 6v-203q0 -66 -54 -94t-181 -28q-238 0 -238 122zM557 598q19 -2 37 -2q164 0 164 197q0 188 -201 188v-383z" />
<glyph unicode="Q" horiz-adv-x="1353" d="M41 657q0 330 166 515.5t485 185.5q309 0 465 -191.5t156 -498.5q0 -225 -91.5 -396.5t-267.5 -248.5q55 0 106.5 17t76.5 34l24 18q6 0 15.5 -3t34 -15.5t44 -29.5t35 -51t15.5 -77q-2 -109 -77 -156t-233 -47q-51 0 -111.5 -14t-92.5 -29l-35 -14q-4 0 -11.5 2 t-27 12.5t-33.5 25.5t-26.5 46t-12.5 72q0 102 82 155q-10 0 -28.5 -1t-28.5 -1q-313 0 -471 190.5t-158 499.5zM526 659q0 -219 35 -293.5t115 -74.5q72 0 107.5 79t35.5 292q0 197 -35.5 271.5t-111.5 74.5q-74 0 -110 -79t-36 -270z" />
<glyph unicode="R" horiz-adv-x="1243" d="M84 106v1043q0 123 106 166t385 43q307 0 468 -139.5t161 -378.5q0 -219 -137 -353l154 -356q0 -6 -2 -16.5t-16.5 -35t-38 -44t-70.5 -35.5t-111 -16q-76 0 -119 10t-84 48t-68.5 109.5t-60.5 196.5l-94 4v-246q0 -66 -54 -94t-181 -28q-238 0 -238 122zM555 637 q19 -2 37 -2q84 0 124 55t40 139q0 172 -201 172v-364z" />
<glyph unicode="S" horiz-adv-x="1126" d="M47 231q0 41 11.5 74t26.5 50.5t30.5 29.5t27.5 16l11 5q150 -86 352 -87q172 0 172 84q0 39 -35 57.5t-90 22.5t-121.5 6.5t-133.5 19.5t-122 52t-90 113t-35 192q0 227 150.5 359.5t447.5 132.5q137 0 236.5 -17.5t130.5 -33.5l33 -19q2 -8 5 -20.5t9 -49t7 -69.5v-7 q0 -30 -8 -67q-9 -41 -28.5 -69.5t-60.5 -49t-101 -20.5q-51 0 -125.5 14.5t-123.5 14.5q-82 0 -118 -19.5t-36 -66.5q0 -45 46 -63q38 -15 92 -15h25q21 1 42 1q52 0 109 -6q81 -10 152 -32.5t117 -98t46 -200.5q0 -221 -144.5 -358.5t-443.5 -137.5q-233 0 -348 70 t-115 192z" />
<glyph unicode="T" horiz-adv-x="1148" d="M20 1153q0 51 14.5 96t31.5 66l14 18h881q161 0 161 -192q0 -61 -19.5 -106.5t-37.5 -59.5l-21 -17h-235v-852q0 -66 -54.5 -94t-181.5 -28q-238 0 -237 122v852h-139q-176 0 -177 195z" />
<glyph unicode="U" horiz-adv-x="1312" d="M78 1214q0 63 54 91t179 28q240 0 240 -119v-731q0 -106 29.5 -148t99.5 -42t101.5 43t31.5 153l-2 725q0 63 49 91t162 28q217 0 217 -119v-677q0 -252 -144.5 -410t-435.5 -158q-289 0 -434 143.5t-145 417.5z" />
<glyph unicode="V" horiz-adv-x="1257" d="M0 1241q2 4 5 12.5t17.5 29t36 35.5t62.5 27.5t92 12.5q121 0 184.5 -40.5t94.5 -146.5q43 -156 83.5 -360.5t59.5 -331.5l18 -129q113 428 144 916q2 4 6 10t22.5 21.5t43 27.5t68.5 22.5t99 10.5q123 0 172 -43t49 -127q0 -106 -106.5 -470t-185.5 -564 q-74 -184 -316 -185q-94 0 -167.5 29t-100.5 59l-29 29z" />
<glyph unicode="W" horiz-adv-x="1851" d="M0 1243q0 4 2 12.5t14.5 28t34 34.5t67.5 27.5t109 12.5q115 0 178.5 -45t86.5 -144q29 -121 47 -332.5t22 -361.5l2 -151q102 676 103 954q8 8 25.5 21.5t85 36t151.5 22.5q125 0 193.5 -39t86.5 -129q37 -174 63.5 -391t35.5 -346l8 -129q76 678 76 958q4 8 15 20.5 t68.5 34t141.5 21.5q123 0 172 -42t49 -126q0 -123 -74.5 -464t-169.5 -607q-51 -150 -299 -150q-92 0 -161.5 22.5t-92.5 45.5l-24 22q-66 530 -92 906q-25 -596 -117 -852q-29 -76 -91.5 -110t-195.5 -34q-82 0 -144.5 21.5t-82.5 42.5l-21 22z" />
<glyph unicode="X" horiz-adv-x="1232" d="M33 1204q0 6 2 16.5t16.5 37t37 47t70.5 37t111 16.5q113 0 177.5 -37t99.5 -127q29 -80 52.5 -181.5t31.5 -164.5l10 -62l113 521q66 51 213 51q219 0 219 -154q0 -109 -73 -253t-167 -267l266 -549q0 -6 -2 -16t-14 -37t-35.5 -46.5t-73 -35.5t-114.5 -16 q-215 0 -283 196q-41 125 -102 336l-99 -424q0 -4 -3 -11t-20 -26.5t-42 -34t-74 -26.5t-112 -14h-5q-198 0 -198 147q0 158 268 569z" />
<glyph unicode="Y" horiz-adv-x="1210" d="M0 1212q0 61 66.5 104.5t160.5 43.5q119 0 179.5 -43t97.5 -152q33 -94 66.5 -227t52.5 -221l18 -86l129 663q6 6 19.5 17.5t66.5 29t123 17.5q219 0 219 -148q0 -203 -139 -471t-223 -325v-310q0 -66 -53.5 -93t-178.5 -27q-231 0 -231 120v320q-37 57 -91.5 153.5 t-139.5 281.5t-142 353z" />
<glyph unicode="Z" horiz-adv-x="1040" d="M18 1174q0 45 13.5 84.5t25.5 56.5l13 18h870q8 -2 21.5 -11t35 -53t21.5 -110q0 -133 -78 -256l-375 -590h402q43 -49 43 -143q0 -90 -47.5 -138t-159.5 -48h-608q-72 0 -118 56t-46 138q0 80 67 203l359 604h-279q-160 0 -160 189z" />
<glyph unicode="[" horiz-adv-x="788" d="M84 90v1065q0 195 99.5 267.5t322.5 72.5q137 0 188 -37t51 -125q0 -35 -6 -67.5t-10 -48.5l-6 -15q-145 0 -187 -44t-42 -204v-708q0 -96 40.5 -129t163.5 -33q33 -33 33 -104q0 -104 -73.5 -154.5t-251.5 -50.5q-172 0 -247 79.5t-75 235.5z" />
<glyph unicode="\" horiz-adv-x="894" d="M31 1313q0 82 50 130t140 48q45 0 77 -6t42 -10l10 -7q20 -55 55 -146t122 -332.5t154 -437.5t122 -382t55 -242q0 -72 -42 -111.5t-120 -39.5q-33 0 -58.5 5t-35.5 11l-10 6q-68 174 -151 383t-130 327t-100 255t-81 212t-54.5 150.5t-35.5 117.5t-9 69z" />
<glyph unicode="]" horiz-adv-x="788" d="M43 -63q0 35 5 67.5t11 48.5l7 15q145 0 187 44t42 203v709q0 96 -41 129t-164 33q-33 33 -33 104q0 104 74 154.5t252 50.5q172 0 247 -79.5t75 -235.5v-1065q0 -195 -99.5 -267.5t-322.5 -72.5q-137 0 -188.5 36.5t-51.5 125.5z" />
<glyph unicode="^" horiz-adv-x="983" d="M53 860q0 96 68.5 234.5t171 244t184.5 105.5q102 0 212 -113.5t175.5 -257t65.5 -244.5q0 -53 -57.5 -96t-165.5 -43q-33 0 -62 19.5t-51.5 49t-42 70.5t-32.5 81t-24.5 82t-17.5 73t-10 53l-4 25l-12 -53q-10 -51 -29 -115t-42.5 -129.5t-54 -110.5t-61.5 -45 q-8 0 -22.5 1t-51 9.5t-64.5 24.5t-50.5 51t-22.5 84z" />
<glyph unicode="_" horiz-adv-x="811" d="M25 -182q0 39 12 72.5t24 48.5l11 16h542q63 0 114.5 -33t51.5 -115q0 -47 -15 -81.5t-32 -44.5l-14 -13h-518q-74 0 -125 43t-51 107z" />
<glyph unicode="`" horiz-adv-x="669" d="M49 1659q0 82 47 133t92 61l48 11l38.5 -16.5t86 -44.5t108.5 -68.5t86 -83.5t39 -95q0 -53 -22.5 -89.5t-45.5 -49.5l-22 -10q-18 2 -49 5t-110 20.5t-138.5 42t-108.5 73.5t-49 111z" />
<glyph unicode="a" d="M37 264q0 147 113.5 221t408.5 74q0 16 1 54t1 51q0 92 -96 92q-47 0 -127 -34t-129 -34q-168 0 -168 184q0 47 9 88t20 60l8 16q205 94 424 94q250 0 365.5 -92t115.5 -338q0 -90 -14.5 -229t-14.5 -170q0 -25 20.5 -36t41.5 -11l22 2q4 -10 9.5 -28.5t6.5 -65.5v-5 q0 -44 -16 -78q-18 -36 -74.5 -65.5t-148.5 -29.5q-160 0 -223 86q-102 -86 -234 -86q-158 0 -239.5 78.5t-81.5 201.5zM389 289q0 -76 82 -76q18 0 36.5 7t29.5 13l8 9v14q0 41 4 119l-148 -23q-12 -20 -12 -63z" />
<glyph unicode="b" horiz-adv-x="1150" d="M78 295v1065q0 59 49 84.5t166 25.5q215 0 215 -110v-397q23 80 87 123.5t163 43.5q168 0 262 -139t94 -413q0 -305 -150 -456t-429 -151q-201 0 -329 83t-128 241zM508 258q37 -15 67 -15q51 0 78 45q43 71 43 253q0 139 -33.5 189t-105.5 50l-49 -8v-514z" />
<glyph unicode="c" horiz-adv-x="929" d="M33 528q0 301 147.5 451.5t397.5 150.5q104 0 181 -14t101 -29l25 -14q4 -12 8 -33.5t7 -77.5q1 -13 1 -24q0 -40 -8 -73q-10 -42 -47 -76.5t-101 -34.5q-47 0 -102 9t-80 9q-49 0 -85 -50t-36 -163q0 -280 218 -280h2q35 0 76.5 8t66.5 16l24 8q2 0 7.5 -3t17.5 -12 t21.5 -23.5t17.5 -40t8 -56.5q0 -207 -342 -207q-250 0 -388 146.5t-138 412.5z" />
<glyph unicode="d" horiz-adv-x="1169" d="M37 528q0 299 141 450.5t389 151.5q14 0 70 -6v240q0 55 49 80.5t164 25.5q217 0 217 -106v-1067q0 -23 21.5 -33t41.5 -10l21 2q4 -10 9 -28.5t6 -65.5v-5q0 -44 -16 -78q-17 -36 -73.5 -65.5t-148.5 -29.5q-158 0 -236 90q-51 -90 -223 -90q-432 0 -432 544zM455 535 q0 -168 37 -223.5t100 -55.5q20 0 45 4v578h-11q-171 0 -171 -303z" />
<glyph unicode="e" horiz-adv-x="1040" d="M33 512q0 303 145.5 460.5t392.5 157.5q209 0 323 -110.5t114 -308.5q0 -68 -14.5 -126.5t-28.5 -80.5l-15 -25l-504 -16q27 -178 220 -178q55 0 113.5 15t88.5 30l29 14q10 -4 23.5 -12t37 -44t23.5 -83q0 -100 -100.5 -168t-311.5 -68q-262 0 -399 150.5t-137 392.5z M444 649l213 17q4 20 5 51q0 43 -24 66.5t-63 23.5q-115 0 -131 -158z" />
<glyph unicode="f" horiz-adv-x="790" d="M6 852l10 86l129 49q-90 80 -90 223q0 131 102.5 204t303.5 73q88 0 164.5 -6t107.5 -13l33 -6q4 -14 9 -36.5t9 -81.5q1 -19 1 -37q0 -36 -5 -66q-8 -45 -44 -82t-97 -37q-25 0 -58.5 4t-52 5.5t-38 -2t-28.5 -16.5t-9 -40q0 -41 32 -65h205q92 0 92 -158q0 -49 -11 -91 t-21 -59l-13 -16h-174v-590q0 -59 -49 -84.5t-166 -25.5q-215 0 -215 110v590q-127 0 -127 158v10z" />
<glyph unicode="g" horiz-adv-x="1130" d="M37 565q0 272 154.5 418.5t457.5 146.5q190 0 303 -53t113 -121l-4 -2l4 -2v-827q0 -219 -137 -320.5t-416 -101.5q-209 0 -323.5 66.5t-114.5 175.5q0 35 9 63.5t21.5 44t24.5 25.5t23 12l8 4q137 -86 297 -86q121 0 155 35q30 30 30 86q0 10 -1 21q-59 -39 -176 -39 q-197 0 -312.5 113.5t-115.5 340.5zM449 575q0 -190 129 -190q25 0 57 4v416q-88 -4 -137 -64.5t-49 -165.5z" />
<glyph unicode="h" horiz-adv-x="1148" d="M78 94v1270q0 55 49 80.5t164 25.5q217 0 217 -106v-377q55 143 242 143q168 0 248.5 -100t80.5 -319v-617q0 -111 -213 -111q-1 1 -2 1q-215 0 -215 110v568q0 68 -20.5 93t-79.5 25q-16 0 -41 -6v-680q0 -111 -213 -111q-1 1 -2 1q-215 0 -215 110z" />
<glyph unicode="i" horiz-adv-x="598" d="M66 1368q0 199 233 199t233 -199q0 -100 -56 -147t-177 -47t-177 47t-56 147zM84 94v903q0 55 49 81t164 26q217 -1 217 -107v-903q0 -59 -49 -84.5t-166 -25.5q-215 0 -215 110z" />
<glyph unicode="j" horiz-adv-x="593" d="M0 -131q10 8 23.5 22.5t37 67t23.5 109.5v929q0 55 49 81t164 26q217 0 217 -107v-974q0 -170 -77 -259.5t-220 -89.5q-68 0 -115 20.5t-65.5 48.5t-28.5 57q-8 23 -8 41v7v21zM66 1368q0 199 233 199t233 -199q0 -100 -56 -147t-177 -47t-177 47t-56 147z" />
<glyph unicode="k" horiz-adv-x="1101" d="M66 94v1270q0 55 49 80.5t164 25.5q217 0 217 -106v-713l184 359q33 66 79 93t150 27q96 0 130 -24.5t34 -69.5q0 -59 -88 -221q-31 -59 -121 -207l236 -465q0 -6 -1 -17t-11.5 -39t-29 -49.5t-59.5 -38.5t-96 -17q-125 0 -178 36.5t-98 128.5q-29 55 -131 293v-346 q0 -59 -49.5 -84.5t-165.5 -25.5q-215 0 -215 110z" />
<glyph unicode="l" horiz-adv-x="598" d="M66 256v1108q0 55 49 80.5t164 25.5q217 0 217 -106v-1067q0 -23 20.5 -33t40.5 -10l23 2q4 -10 9 -28.5t6 -65.5v-5q-1 -44 -17 -78q-18 -36 -73.5 -65.5t-148.5 -29.5q-137 0 -213.5 69.5t-76.5 202.5z" />
<glyph unicode="m" horiz-adv-x="1689" d="M66 94v903q0 55 49 81t164 26q217 0 217 -107v-41q27 80 93 127t159 47q117 0 184 -35.5t100 -127.5q27 78 96.5 120.5t165.5 42.5q168 0 249 -100t81 -319v-600q0 -111 -215 -111t-215 111v551q0 68 -20.5 93t-79.5 25q-4 0 -14.5 -1t-16.5 -1q0 -12 1 -34.5t1 -32.5 v-617q0 -111 -213 -111q-1 1 -2 1q-215 0 -215 110v568q0 68 -20.5 93t-79.5 25q-20 0 -39 -6v-680q0 -111 -213 -111q-1 1 -2 1q-215 0 -215 110z" />
<glyph unicode="n" horiz-adv-x="1132" d="M66 94v903q0 55 49 81t164 26q217 0 217 -107v-10q55 143 241 143q168 0 249 -100t81 -319v-617q0 -111 -213 -111q-1 1 -2 1q-215 0 -215 110v568q0 68 -20.5 93t-79.5 25q-16 0 -41 -6v-680q0 -111 -215 -111t-215 111z" />
<glyph unicode="o" horiz-adv-x="1116" d="M33 551q0 274 139.5 426.5t407.5 152.5q242 0 372.5 -160.5t130.5 -412.5q0 -256 -135 -422t-397 -166t-390 161t-128 421zM446 547q0 -162 27 -217.5t86 -55.5q51 0 78 58.5t27 216.5q0 143 -27 198.5t-82 55.5t-82 -58.5t-27 -197.5z" />
<glyph unicode="p" horiz-adv-x="1142" d="M78 -190v1210q0 59 49 84.5t166 25.5q215 0 215 -110v-57q23 80 87 123.5t163 43.5q168 0 258 -141t90 -418q0 -295 -131 -441t-326 -146q-88 0 -141 24v-198q0 -55 -49 -81t-164 -26q-217 1 -217 107zM508 242q15 -3 28 -3q68 0 110 75q50 90 50 227q0 139 -33.5 189 t-105.5 50l-49 -8v-530z" />
<glyph unicode="q" horiz-adv-x="1142" d="M37 528q0 600 506 600q160 0 205 -104l55 92q53 12 100 12q86 0 124 -28.5t38 -102.5v-1183q0 -59 -49 -85t-166 -26q-215 0 -215 111v206q-66 -36 -161 -36h-5q-432 0 -432 544zM449 555q0 -176 27.5 -246.5t115.5 -70.5q18 0 43 4v563q-186 -6 -186 -250z" />
<glyph unicode="r" horiz-adv-x="856" d="M66 94v903q0 55 49 81t164 26q217 -1 217 -107v-8q51 127 196 127q43 0 79 -10t50 -21l15 -10q20 -55 20 -137q0 -256 -211 -256q-84 0 -149 39v-627q0 -59 -49.5 -84.5t-165.5 -25.5q-215 0 -215 110z" />
<glyph unicode="s" horiz-adv-x="989" d="M33 197q0 53 21.5 90t43.5 47l21 10q113 -76 313 -76q133 0 133 78q0 39 -54 49.5t-131 12.5t-153.5 19t-131 90t-54.5 202q0 190 132 300.5t392 110.5q111 0 199 -14t121 -31l33 -14q4 -12 8 -33.5t5 -75.5v-9q-1 -49 -11 -87q-12 -41 -50.5 -74.5t-101.5 -33.5 q-45 0 -121 15t-119 15q-61 0 -86.5 -16t-25.5 -53q0 -41 56 -51.5t136 -10.5t159 -12t135 -77.5t56 -188.5q0 -176 -123.5 -293t-400.5 -117q-401 0 -401 228z" />
<glyph unicode="t" horiz-adv-x="811" d="M8 971l8 63q72 61 96.5 103.5t55.5 142.5q55 53 186 53q184 0 185 -119v-110h157q90 0 90 -174q0 -39 -12 -76t-24 -55l-11 -19h-200v-418q0 -49 49 -62q28 -7 55 -7l43 4l49 10q41 -43 41 -133q0 -109 -66.5 -157t-217.5 -48q-182 0 -278.5 106.5t-96.5 284.5v420 q-71 0 -95 64q-17 45 -17 90q0 18 3 37z" />
<glyph unicode="u" horiz-adv-x="1169" d="M70 311v686q0 55 49 81t164 26q217 0 217 -107v-635q0 -96 86 -96q31 0 55 6v725q0 55 49 81t164 26q217 0 217 -107v-700q0 -23 21.5 -33t42.5 -10l20 2q4 -10 9 -28.5t6 -65.5v-5q0 -44 -16 -78q-17 -36 -73.5 -65.5t-148.5 -29.5q-170 0 -242 98q-70 -98 -266 -98 q-176 0 -265 90t-89 237z" />
<glyph unicode="v" horiz-adv-x="1110" d="M10 1030q2 4 6 10.5t19.5 23.5t36 30.5t56.5 23.5t79 10q102 0 163.5 -34.5t84.5 -122.5q37 -131 65.5 -316.5t36.5 -306.5l10 -119q98 594 99 830q6 8 19 20.5t67.5 31.5t126.5 19q200 0 200 -142q0 -95 -83 -386t-158 -479q-27 -66 -97.5 -109t-179.5 -43 q-78 0 -139.5 24.5t-83.5 49.5l-23 25z" />
<glyph unicode="w" horiz-adv-x="1642" d="M16 1038q4 10 15.5 25.5t63.5 41t126 25.5q94 0 145.5 -35.5t71.5 -125.5q31 -133 51.5 -308.5t26.5 -283.5l6 -109q86 557 86 793q6 8 21.5 19.5t73 30.5t128.5 19h4q208 0 236 -118q35 -145 56.5 -331.5t27.5 -299.5l4 -113q68 565 68 801q4 6 13 16.5t57.5 27.5 t119.5 17q195 0 195 -143q0 -98 -66.5 -378.5t-146.5 -512.5q-45 -127 -256 -127q-78 0 -137.5 20.5t-79.5 39.5l-21 20q-51 379 -80 684q-23 -449 -96 -641q-25 -63 -78 -92t-166 -29q-78 0 -131 18.5t-67 35.5l-15 18z" />
<glyph unicode="x" horiz-adv-x="1085" d="M18 1001q0 6 2.5 14.5t14.5 31t31.5 39t62.5 30.5t98 14q100 0 156.5 -30.5t87.5 -106.5q25 -66 46.5 -146.5t29.5 -127.5l8 -47l98 415q57 43 189 43q192 0 192 -129q0 -90 -63.5 -208.5t-149.5 -225.5l236 -458q0 -4 -2 -13.5t-13.5 -31t-31 -38t-60.5 -29.5t-96 -13 q-197 0 -254 155q-25 63 -48.5 136t-33.5 114l-10 41l-88 -356q0 -4 -3 -10.5t-17.5 -21.5t-36 -27.5t-65.5 -22.5t-99 -12h-6q-172 0 -173 122q0 131 236 478z" />
<glyph unicode="y" horiz-adv-x="1083" d="M10 1008q0 4 1 13t12.5 29.5t30 37t58.5 29.5t95 13q72 0 116 -19t79.5 -62t61 -143.5t47 -226.5t48.5 -347l94 717q4 8 15.5 22t61.5 36.5t116 22.5q117 0 162 -31.5t45 -107.5q0 -63 -95.5 -367.5t-191.5 -576.5l-94 -272q-8 -8 -23.5 -20.5t-73 -32t-124.5 -19.5 q-193 0 -193 168q0 49 24.5 96t49.5 70l24 22z" />
<glyph unicode="z" horiz-adv-x="976" d="M41 180q0 106 76 207l301 395h-221q-147 0 -148 174q0 41 12.5 78t24.5 53l10 17h770q8 -4 20.5 -15.5t32 -52.5t19.5 -94q0 -145 -88 -252l-313 -385h372q39 -45 39 -133q0 -84 -43 -128t-147 -44h-565q-66 0 -109 52t-43 128z" />
<glyph unicode="{" horiz-adv-x="829" d="M61 575q0 27 4.5 48.5t7.5 32t5 10.5q147 43 147 151q0 37 -29.5 149.5t-29.5 188.5q0 174 93 254t286 80q133 0 187 -36t54 -122q0 -33 -6 -64.5t-12 -45.5l-6 -17q-154 0 -200 -57t-46 -247.5t-27 -289.5q53 -49 54 -116q0 -59 -13.5 -130t-13.5 -118q0 -94 50 -125 t182 -31q25 -41 24 -117q0 -102 -52 -156.5t-220 -54.5q-166 0 -249 79t-83 249q0 157 57 356q-92 8 -128 41t-36 88z" />
<glyph unicode="|" horiz-adv-x="534" d="M98 1348q0 106 58.5 158.5t138.5 52.5q57 0 100 -23.5t43 -58.5l-16 -1313q-4 -248 -42 -342t-140 -94q-39 0 -69 11t-40 23l-10 11q-23 821 -23 1575z" />
<glyph unicode="}" horiz-adv-x="829" d="M53 -82q0 33 6.5 64.5t12.5 46.5l6 16q154 0 200 57.5t46 248t26 288.5q-53 49 -53 117q0 59 13.5 129.5t13.5 118.5q0 94 -50.5 124.5t-181.5 30.5q-25 41 -24 117q0 102 52 156.5t220 54.5q166 0 249 -79t83 -249q-1 -157 -58 -356q92 -8 128 -41t36 -88 q0 -27 -4 -48.5t-7 -31.5t-5 -10q-147 -43 -148 -152q0 -37 30 -149.5t30 -188.5q0 -174 -93.5 -254t-285.5 -80q-133 0 -187.5 36t-54.5 122z" />
<glyph unicode="~" horiz-adv-x="872" d="M33 575q0 98 64.5 183.5t166.5 85.5q82 0 159 -36t114 -71l34 -37l54 168q27 8 63 9q150 0 150 -160q0 -125 -75 -221.5t-218 -96.5q-76 0 -143.5 36t-98.5 73l-31 37q-2 -8 -5 -22.5t-8 -44t-9 -48.5l-6 -20q-27 -8 -62 -9q-150 0 -149 174z" />
<glyph unicode="&#xa1;" horiz-adv-x="630" d="M55 -154q82 395 82 707q45 41 170 41q129 0 193.5 -118t64.5 -374q0 -397 -278 -397q-53 0 -96.5 14.5t-68 36t-40.5 42t-21 34.5zM59 920q0 211 263 210q258 0 258 -210q0 -213 -258 -213q-263 0 -263 213z" />
<glyph unicode="&#xa2;" horiz-adv-x="921" d="M33 528q0 260 109.5 407.5t303.5 182.5q16 133 52.5 188.5t119.5 55.5q49 0 81 -17.5t38 -35.5l8 -19l-36 -168q57 -6 101 -18t58 -23l17 -8q4 -12 8 -33.5t7 -77t-7 -97.5t-47 -76.5t-101 -34.5q-47 0 -102 9t-80 9q-49 0 -85 -50t-36 -163q0 -295 201 -295q33 0 80 9.5 t78 17.5l30 10q6 -2 15.5 -10t25 -44t15.5 -85q0 -193 -340 -193h-35q-29 -121 -66.5 -173t-99.5 -52q-45 0 -69.5 15.5t-26.5 31.5l-2 14l37 226q-121 63 -186.5 191t-65.5 306z" />
<glyph unicode="&#xa3;" horiz-adv-x="1077" d="M27 596q0 49 29.5 81t101.5 50q-4 33 -14.5 92.5t-15.5 98t-5 67.5q0 186 127 279.5t420 93.5q43 0 99 -6t91 -13l35 -6q57 -53 57 -196q0 -92 -42 -128t-101 -34t-117.5 3t-100.5 -39t-42 -136v-41q193 4 340 4q47 -35 47 -135q0 -82 -43 -116t-131 -34h-238 q-10 -61 -37 -153h494q39 -25 39 -107q0 -219 -254 -219h-397q-174 0 -241 60.5t-67 162.5l-2 2q96 96 111 254h-104q-39 35 -39 115z" />
<glyph unicode="&#xa4;" horiz-adv-x="1144" d="M37 102q0 76 92 232q-78 129 -78 319q0 215 99 346l-97 224q0 6 2 15t11.5 31.5t23.5 41t46 33t73 14.5q82 0 132 -36t120 -146q67 10 135 10q57 0 129 -15l137 175q10 2 26.5 6t58.5 4t75 -10.5t59.5 -47t26.5 -96.5q0 -106 -82 -246q72 -127 72 -297q0 -217 -113 -360 l111 -186q0 -6 1 -15.5t-4.5 -35t-16.5 -45t-41.5 -35t-76.5 -15.5q-123 0 -272 164q-61 -10 -119 -10q-82 0 -153 16q-49 -49 -98.5 -93t-73.5 -62l-25 -19q-8 0 -19.5 -1t-43 4t-55 17.5t-43 43t-19.5 75.5zM459 651q0 -145 34.5 -197.5t98.5 -52.5q125 0 125 250 q0 233 -129 233.5t-129 -233.5z" />
<glyph unicode="&#xa5;" horiz-adv-x="1333" d="M37 645q0 39 13 66.5t26 33.5l12 9h152q-123 250 -193 458q0 63 65.5 105.5t170.5 42.5q117 0 174 -42t94 -153q33 -94 66.5 -227t52.5 -221l18 -86l129 669q6 6 19.5 17.5t66.5 29t123 17.5q219 0 219 -147q23 -160 -135 -463h82q57 0 86 -27t29 -92q0 -41 -12.5 -68.5 t-24.5 -34.5l-15 -8h-280q-47 -63 -57 -75h274q57 0 86 -27t29 -92q0 -41 -12.5 -69t-24.5 -36l-15 -6h-372v-115q0 -66 -53.5 -93t-178.5 -27q-231 0 -231 120v115h-268q-57 0 -85 27.5t-28 93.5q0 39 13.5 66.5t25.5 35.5l12 7h313l-43 75h-210q-57 0 -85 28t-28 93z" />
<glyph unicode="&#xa6;" horiz-adv-x="708" d="M205 328q0 211 155 211q57 0 100.5 -23.5t43.5 -58.5q-20 -489 -35 -582q-25 -150 -96 -166q-12 -2 -27 -2q-39 0 -68.5 11.5t-39.5 23.5l-11 10q-23 268 -22 576zM205 1333q0 106 58.5 158.5t137.5 52.5q57 0 100.5 -23.5t43.5 -58.5q0 -324 -21.5 -496.5t-62.5 -234 t-115 -61.5q-39 0 -68.5 11t-39.5 24l-11 10q-23 311 -22 618z" />
<glyph unicode="&#xa7;" horiz-adv-x="1009" d="M39 946q0 190 131 301t381 111q115 0 194.5 -19.5t102.5 -40.5l22 -20q2 -10 6.5 -29.5t5.5 -66.5t-9.5 -83t-47.5 -65.5t-98 -29.5q-43 0 -122 12t-120 12q-139 0 -139 -72q0 -43 58.5 -52t142.5 -8t168 -11.5t142 -80t58 -194.5q0 -143 -112 -252q172 -59 172 -295 q0 -199 -123 -310t-375 -111q-188 0 -279.5 58t-91.5 161q0 41 12.5 74.5t31 52t37 31t30.5 16.5l12 4q8 -10 25.5 -24.5t91.5 -39t168 -24.5q147 0 148 74q0 37 -56.5 49t-136.5 18t-159 24.5t-135 85t-56 183.5q0 152 117 258q-197 49 -197 303zM424 481q0 -78 119 -88 q84 51 84 123q0 92 -117 107q-86 -59 -86 -142z" />
<glyph unicode="&#xa8;" horiz-adv-x="1277" d="M164 1579q0 100 57.5 142t165.5 42q225 0 225 -184q0 -182 -225 -182q-223 0 -223 182zM666 1579q0 100 57 142t166 42q225 0 225 -184q0 -182 -225 -182q-223 0 -223 182z" />
<glyph unicode="&#xa9;" horiz-adv-x="1513" d="M61 670q0 377 191.5 564t519.5 187q309 0 494.5 -183t185.5 -515q0 -379 -189.5 -566.5t-531.5 -187.5q-305 0 -487.5 185.5t-182.5 515.5zM285 674q0 -227 124.5 -354t335.5 -127q233 0 363.5 128t130.5 390q0 227 -128 353t-339 126q-223 0 -355 -129t-132 -387z M444 682q0 197 99.5 294t269.5 97q57 0 105.5 -8t66.5 -16l19 -7q29 -39 28 -96q0 -43 -14 -68.5t-41 -32.5t-50.5 -8t-57 3t-44.5 4q-55 0 -79.5 -31t-24.5 -108q0 -82 40 -123t105 -41q29 0 65 6t56 10l23 6q28 -20 28 -88q0 -156 -245 -156q-160 0 -254.5 95.5 t-94.5 267.5z" />
<glyph unicode="&#xaa;" horiz-adv-x="1013" d="M61 125q0 78 70 134t209 56q74 0 173 -31.5t142 -31.5q41 0 90.5 13.5t77.5 25.5l31 12q4 0 10 -2t23.5 -11t31 -21.5t23.5 -37t10 -55.5q0 -78 -70.5 -135t-209.5 -57q-82 0 -175.5 32.5t-140.5 32.5q-41 0 -90 -13t-78 -28l-30 -12q-10 2 -26.5 8t-43.5 39t-27 82z M68 633q0 131 102 199.5t352 64.5v4q0 4 1 8t1 10.5v12.5q0 39 -22.5 57.5t-79.5 18.5q-45 0 -108.5 -23.5t-106.5 -23.5q-63 0 -96 55t-33 121q0 41 7 72.5t13 43.5l8 13q174 90 363 90q223 0 326.5 -79t103.5 -292q0 -59 -6 -149.5t-12 -149.5l-7 -59h52q20 -47 20 -92 q0 -154 -207 -154q-115 0 -168 53q-78 -53 -202 -53q-152 0 -226.5 71.5t-74.5 180.5zM381 662q0 -72 72 -72q16 0 30.5 4t20.5 8l4 2v131q-74 -2 -100.5 -20.5t-26.5 -52.5z" />
<glyph unicode="&#xab;" horiz-adv-x="1243" d="M43 553q0 72 158.5 267.5t242.5 195.5q80 0 127 -46t47 -120q0 -51 -57 -125t-115 -123l-57 -49q18 -49 77.5 -125t108.5 -129l50 -51q0 -6 -2 -15.5t-14.5 -34t-31 -44t-57.5 -35t-90 -15.5q-96 0 -190.5 86t-145.5 189.5t-51 173.5zM618 553q0 72 159 267.5t243 195.5 q80 0 127 -46t47 -120q0 -51 -57.5 -125t-114.5 -123l-57 -49q18 -49 77.5 -126t108.5 -128l49 -51q0 -6 -2 -15.5t-14.5 -34t-30.5 -44t-57 -35t-90 -15.5q-96 0 -190.5 86t-146 189.5t-51.5 173.5z" />
<glyph unicode="&#xac;" horiz-adv-x="1460" d="M55 748q0 37 12.5 68.5t24.5 43.5l12 14h1084q106 0 158.5 -45t52.5 -145q0 -283 -29 -442.5t-71 -208.5t-109 -49q-41 0 -73 9t-44 19l-12 8l-31 535q-143 -20 -444 -20t-416 54t-115 159z" />
<glyph unicode="&#xad;" d="M70 659q0 41 12 79t24 55l15 16h733q135 0 135 -162q0 -49 -16.5 -87t-32.5 -52l-16 -12h-707q-147 0 -147 163z" />
<glyph unicode="&#xae;" horiz-adv-x="1513" d="M61 670q0 377 191.5 564t519.5 187q309 0 494.5 -183t185.5 -515q0 -379 -189.5 -566.5t-531.5 -187.5q-305 0 -487.5 185.5t-182.5 515.5zM285 674q0 -227 124.5 -354t335.5 -127q233 0 363.5 128t130.5 390q0 227 -128 353t-339 126q-223 0 -355 -129t-132 -387z M455 381v584q0 68 59 92t215 24q172 0 262 -77.5t90 -210.5q0 -119 -75 -199l84 -199q0 -4 -1.5 -9t-9.5 -19.5t-20 -24.5t-39 -19.5t-62 -9.5q-82 0 -117.5 35t-68.5 168l-53 2v-137q0 -37 -30 -52.5t-101 -15.5q-133 0 -133 68zM717 678q12 -2 20 -2q94 0 94 108 q0 98 -114 99v-205z" />
<glyph unicode="&#xaf;" horiz-adv-x="849" d="M55 1337q0 37 8.5 63.5t16.5 37.5l8 8q88 18 338 18q203 0 287 -36.5t84 -106.5q0 -39 -12.5 -69.5t-24.5 -41.5l-12 -10q-59 -20 -314 -20q-209 0 -294 34.5t-85 122.5z" />
<glyph unicode="&#xb0;" horiz-adv-x="833" d="M41 958q0 178 105.5 273.5t277.5 95.5q166 0 267.5 -94t101.5 -260q0 -180 -104.5 -272.5t-282.5 -92.5q-166 0 -265.5 93.5t-99.5 256.5zM330 958q0 -124 82 -124q96 0 96 133q0 125 -84 125q-94 0 -94 -134z" />
<glyph unicode="&#xb1;" horiz-adv-x="1124" d="M125 260q0 35 11 66.5t22 46.5l10 12h700q113 0 113 -135q0 -43 -13.5 -75t-27.5 -44l-14 -10h-676q-125 0 -125 139zM125 821q0 35 11 67t22 46l10 12h254v111q0 125 137 125q35 0 66.5 -11.5t46.5 -21.5l14 -10v-193h182q113 0 113 -135q0 -43 -13.5 -74.5t-27.5 -44.5 l-14 -10h-240v-121q0 -113 -137 -112q-41 0 -73 13t-42 27l-12 15v178h-172q-125 0 -125 139z" />
<glyph unicode="&#xb2;" horiz-adv-x="722" d="M53 1212q0 31 5 55.5t10 32.5l4 9q86 68 288 67q150 0 228 -71.5t78 -208.5q0 -47 -25 -100.5t-59.5 -95.5t-68.5 -77t-58 -53l-25 -20h236q27 -35 26 -95q0 -141 -182 -141h-307q-68 0 -104 39t-36 106l9 74q12 8 30.5 22.5t66.5 56.5t85 80t66.5 83t29.5 76 q0 33 -14 47t-51 14q-29 0 -70 -13.5t-68 -13.5q-49 0 -71.5 39t-22.5 88z" />
<glyph unicode="&#xb3;" horiz-adv-x="755" d="M33 659q0 43 18.5 72t34.5 37l18 8q96 -51 179 -51q104 0 104 55q0 29 -49 40t-180 11q-51 31 -52 101q0 53 50.5 87t220.5 101h-197q-123 0 -123 123q0 31 11.5 59.5t21.5 40.5l12 15h437q45 0 82.5 -49t37.5 -127q-2 -139 -106 -185l-80 -34q193 -35 193 -199 q0 -125 -95.5 -193.5t-263.5 -68.5q-127 0 -200.5 42t-73.5 115z" />
<glyph unicode="&#xb4;" horiz-adv-x="669" d="M63 1331q0 72 89.5 148.5t179.5 117.5l90 41q8 0 20.5 -3t44 -16t56 -32.5t45 -60.5t20.5 -92q0 -61 -47 -109.5t-113.5 -74t-133 -42t-113.5 -20.5l-47 -6q-10 4 -25.5 12t-40.5 46t-25 91z" />
<glyph unicode="&#xb5;" horiz-adv-x="1159" d="M70 -31v1028q0 55 49 81t164 26q217 0 217 -107v-635q0 -96 86 -96q31 0 55 6v725q0 55 49 81t164 26q217 0 217 -107v-741h74q2 -6 6 -15.5t11 -38t7 -54t-11 -57.5t-35.5 -54.5t-75.5 -37.5t-123 -15q-166 0 -234 96q-55 -76 -201 -92q14 -51 34 -106.5t34 -84.5 l12 -28q-2 -6 -5 -15.5t-20.5 -35t-42 -45t-70.5 -35t-105 -15.5q-129 0 -192.5 82t-63.5 264z" />
<glyph unicode="&#xb6;" horiz-adv-x="1310" d="M33 825q0 283 171 407t527 124q158 0 291 -8.5t188 -16.5l56 -6q43 -66 43 -147q0 -143 -129 -148q-10 -588 -29 -1014q-8 -154 -143 -153q-25 0 -53.5 7t-45.5 13l-14 6v1153h-80q-16 -813 -29 -1067q-8 -152 -143 -151q-25 0 -53.5 6t-44.5 12l-15 6v576q-25 -2 -73 -2 q-82 0 -150.5 17.5t-133 59.5t-102.5 125t-38 201z" />
<glyph unicode="&#xb7;" horiz-adv-x="643" d="M63 653q0 127 66 182.5t193 55.5t192.5 -55.5t65.5 -182.5t-65.5 -182t-192.5 -55t-193 55t-66 182z" />
<glyph unicode="&#xb8;" horiz-adv-x="1320" d="M397 -372.5q-4 26.5 17.5 57t64.5 30.5q16 0 41 -5t44.5 -8t39 -3t29.5 11t10 34q0 20 -22.5 34.5t-51 23t-51 33t-22.5 61.5q0 43 24.5 74.5t48.5 41.5l23 11q16 -51 60 -81t86 -41.5t75 -45t33 -93.5q0 -102 -76 -154t-182 -52q-57 0 -104.5 10t-65.5 20l-19 11 q2 4 -2 30.5z" />
<glyph unicode="&#xb9;" horiz-adv-x="686" d="M63 1192q0 29 8.5 52.5t16.5 33.5l8 8q182 88 254 88q162 0 162 -86v-534l74 -9q29 -20 28.5 -93.5t-49.5 -108.5t-190 -35l-283 24l-4 3q-23 12 -22 86q0 111 122 137v313q-125 6 -125 121z" />
<glyph unicode="&#xba;" horiz-adv-x="1024" d="M61 862q0 233 117 363.5t344 130.5q221 0 331 -134.5t110 -351.5q0 -215 -116 -353t-339 -138t-335 134t-112 349zM68 125q0 78 69.5 134t208.5 56q74 0 173.5 -31.5t142.5 -31.5q41 0 90 13.5t79 25.5l29 12q4 0 10.5 -2t23.5 -11t30.5 -21.5t23.5 -37t10 -55.5 q0 -78 -70.5 -135t-209.5 -57q-82 0 -175 32.5t-141 32.5q-41 0 -90 -13t-79 -28l-29 -12q-10 2 -26.5 8t-43 39t-26.5 82zM422 864q0 -143 21.5 -193t68.5 -50q43 0 63.5 52t20.5 193q0 129 -20.5 178.5t-65.5 49.5t-66.5 -51.5t-21.5 -178.5z" />
<glyph unicode="&#xbb;" horiz-adv-x="1243" d="M43 872q0 6 2 15.5t14.5 34t31 44t57 35t90.5 15.5q96 0 190 -86t145.5 -189.5t51.5 -173.5q0 -72 -159 -267.5t-243 -195.5q-80 0 -127 46.5t-47 119.5q0 51 57.5 125t114.5 123l58 49q-18 49 -78 126t-109 128zM618 872q0 6 2.5 15.5t14.5 34t30.5 44t57.5 35t90 15.5 q96 0 190.5 -86t145.5 -189.5t51 -173.5q0 -72 -158.5 -267.5t-242.5 -195.5q-80 0 -127 46.5t-47 119.5q0 51 57 125t115 123l57 49q-18 49 -77.5 126t-108.5 128z" />
<glyph unicode="&#xbc;" horiz-adv-x="1908" d="M57 1192q0 33 8.5 56.5t16.5 29.5l8 8q182 88 254 88q162 0 162 -86v-536l94 -7q27 -20 27 -93.5t-49.5 -106.5t-190.5 -33q-61 0 -134 5t-114 11l-41 4l-10 5q-20 35 -20 88q0 61 24.5 90.5t89.5 42.5v313q-125 6 -125 121zM610 43l248 1186q18 86 60.5 121.5 t121.5 35.5q55 0 90 -23.5t41 -47.5l9 -23l-275 -1173q-35 -147 -162 -148q-41 0 -74.5 18.5t-45.5 35.5zM1061 299l8 66l209 368q37 68 91 100.5t161 32.5q66 0 117 -13t69 -26l19 -14v-434h77q25 -47 25 -94q0 -55 -20.5 -84t-81.5 -31v-76q0 -51 -35 -72.5t-113 -21.5 q-160 0 -160 94v76h-163q-203 0 -203 129zM1321 373h106v205z" />
<glyph unicode="&#xbd;" horiz-adv-x="1908" d="M57 1192q0 33 8.5 56.5t16.5 29.5l8 8q182 88 254 88q162 0 162 -86v-536l94 -7q27 -20 27 -93.5t-49.5 -106.5t-190.5 -33q-61 0 -134 5t-114 11l-41 4l-10 5q-20 35 -20 88q0 61 24.5 90.5t89.5 42.5v313q-125 6 -125 121zM594 43l248 1186q18 86 60 121.5t122 35.5 q55 0 90 -23.5t41 -47.5l8 -23l-274 -1173q-35 -147 -162 -148q-41 0 -75 18.5t-46 35.5zM1137 702q0 31 5 54.5t9 34.5l6 8q86 66 289 65q307 0 307 -278q0 -115 -75.5 -206t-159.5 -144h233q29 -37 29 -95q0 -141 -183 -141h-319q-129 0 -129 145l8 74q12 8 30.5 22.5 t67 56.5t85 80t66.5 84t30 77q0 35 -14.5 49t-49.5 14q-31 0 -69.5 -13.5t-71.5 -13.5q-47 0 -70.5 39t-23.5 88z" />
<glyph unicode="&#xbe;" horiz-adv-x="1961" d="M39 625q0 45 17.5 75.5t35.5 38.5l19 9q102 -53 188 -54q111 0 111 58q0 31 -51.5 41t-182.5 10l-8 2q-55 33 -55 106q0 59 43 91t225 108h-191q-127 0 -127 129q0 31 11.5 60.5t23.5 43.5l13 15h456q47 0 86 -46t41 -120q-2 -158 -102 -207l-90 -39q104 -18 151 -68.5 t47 -142.5q0 -133 -99 -203.5t-277 -70.5q-133 0 -209 44t-76 120zM666 43l247 1186q18 86 60.5 121.5t122.5 35.5q55 0 90 -23.5t43 -47.5l6 -23l-274 -1173q-35 -147 -162 -148q-41 0 -75 18.5t-46 35.5zM1114 299l8 66l207 368q39 70 93.5 101.5t160.5 31.5q66 0 117 -13 t69 -26l19 -14v-434h76q25 -47 24 -94q0 -55 -19.5 -84t-80.5 -31v-76q0 -51 -35 -72.5t-115 -21.5q-158 0 -157 94v76h-166q-201 0 -201 129zM1374 373h107v205z" />
<glyph unicode="&#xbf;" horiz-adv-x="983" d="M37 86q0 96 31.5 166t88 115t116 79.5t131 81.5t118.5 101q10 0 27.5 1t62.5 -5.5t79 -19.5t61.5 -47t27.5 -83q0 -61 -29.5 -104t-72.5 -66.5t-85 -43t-71.5 -45.5t-29.5 -62q0 -41 19 -59.5t55 -19.5t73 5t88 14t86 8q92 0 120 -79.5t9 -161.5l-18 -80 q-12 -8 -40 -21.5t-132.5 -35t-233.5 -21.5q-223 0 -352 99.5t-129 283.5zM309 915q0 211 262 211q258 0 258 -211q0 -213 -258 -213q-262 0 -262 213z" />
<glyph unicode="&#xc0;" horiz-adv-x="1251" d="M18 98q123 707 230 1045q66 207 373 207q315 0 380 -207q59 -182 134 -531.5t75 -451.5q0 -80 -58 -127t-183 -47q-121 0 -171.5 43t-66.5 143l-8 49h-264l-6 -47q-12 -100 -66.5 -144t-167.5 -44q-51 0 -91 11t-59.5 27.5t-31.5 34t-17 27.5zM295 1659q0 82 47 133 t92 61l47 11q14 -6 39 -16.5t86.5 -44.5t108.5 -68.5t86 -83.5t39 -95q0 -53 -22.5 -89.5t-45.5 -49.5l-22 -10q-18 2 -49 5t-110 20.5t-138.5 42t-108.5 73.5t-49 111zM500 512h178q-12 84 -23.5 172t-16.5 131t-12.5 83t-16.5 53.5t-23 13.5q-6 0 -12.5 -4.5t-10.5 -15.5 t-8 -24.5t-7 -37t-7 -47t-8.5 -60.5t-8.5 -73.5t-11 -89t-13 -101.5z" />
<glyph unicode="&#xc1;" horiz-adv-x="1251" d="M18 98q123 707 230 1045q66 207 373 207q315 0 380 -207q59 -182 134 -531.5t75 -451.5q0 -80 -58 -127t-183 -47q-121 0 -171.5 43t-66.5 143l-8 49h-264l-6 -47q-12 -100 -66.5 -144t-167.5 -44q-51 0 -91 11t-59.5 27.5t-31.5 34t-17 27.5zM397 1552q0 72 90.5 149 t180.5 118l88 41q8 0 20 -3.5t44 -16.5t56.5 -32.5t45 -60.5t20.5 -92q0 -61 -47 -109.5t-113.5 -74t-133 -42t-113.5 -20.5l-48 -6q-10 4 -25.5 12t-40 46t-24.5 91zM500 512h178q-12 84 -23.5 172t-16.5 131t-12.5 83t-16.5 53.5t-23 13.5q-6 0 -12.5 -4.5t-10.5 -15.5 t-8 -24.5t-7 -37t-7 -47t-8.5 -60.5t-8.5 -73.5t-11 -89t-13 -101.5z" />
<glyph unicode="&#xc2;" horiz-adv-x="1251" d="M18 98q123 707 230 1045q66 207 373 207q315 0 380 -207q59 -182 134 -531.5t75 -451.5q0 -80 -58 -127t-183 -47q-121 0 -171.5 43t-66.5 143l-8 49h-264l-6 -47q-12 -100 -66.5 -144t-167.5 -44q-51 0 -91 11t-59.5 27.5t-31.5 34t-17 27.5zM205 1526q0 78 134 170 t275 92q92 0 194.5 -54.5t158.5 -107.5l57 -53q0 -59 -54.5 -114.5t-142.5 -55.5q-82 0 -149.5 40t-95.5 79l-27 39l-178 -158h-2q-10 -4 -38 0t-57.5 10t-52 36t-22.5 77zM500 512h178q-12 84 -23.5 172t-16.5 131t-12.5 83t-16.5 53.5t-23 13.5q-6 0 -12.5 -4.5 t-10.5 -15.5t-8 -24.5t-7 -37t-7 -47t-8.5 -60.5t-8.5 -73.5t-11 -89t-13 -101.5z" />
<glyph unicode="&#xc3;" horiz-adv-x="1251" d="M18 98q123 707 230 1045q66 207 373 207q315 0 380 -207q59 -182 134 -531.5t75 -451.5q0 -80 -58 -127t-183 -47q-121 0 -171.5 43t-66.5 143l-8 49h-264l-6 -47q-12 -100 -66.5 -144t-167.5 -44q-51 0 -91 11t-59.5 27.5t-31.5 34t-17 27.5zM260 1581q0 82 61.5 138.5 t167.5 56.5q59 0 144.5 -37t128.5 -39q35 0 78 10t69 21l25 10q2 0 7 -2t17.5 -12.5t21.5 -24.5t16.5 -42t7.5 -63q0 -82 -57.5 -138t-166.5 -56q-63 0 -146 38t-130 38q-35 0 -79 -10.5t-69 -18.5l-26 -10q-2 0 -7.5 2t-17.5 12t-21.5 24.5t-16.5 41t-7 61.5zM500 512h178 q-12 84 -23.5 172t-16.5 131t-12.5 83t-16.5 53.5t-23 13.5q-6 0 -12.5 -4.5t-10.5 -15.5t-8 -24.5t-7 -37t-7 -47t-8.5 -60.5t-8.5 -73.5t-11 -89t-13 -101.5z" />
<glyph unicode="&#xc4;" horiz-adv-x="1251" d="M18 98q123 707 230 1045q66 207 373 207q315 0 380 -207q59 -182 134 -531.5t75 -451.5q0 -80 -58 -127t-183 -47q-121 0 -171.5 43t-66.5 143l-8 49h-264l-6 -47q-12 -100 -66.5 -144t-167.5 -44q-51 0 -91 11t-59.5 27.5t-31.5 34t-17 27.5zM143 1579q0 100 57.5 142 t166.5 42q225 0 225 -184q0 -182 -225 -182q-223 0 -224 182zM500 512h178q-12 84 -23.5 172t-16.5 131t-12.5 83t-16.5 53.5t-23 13.5q-6 0 -12.5 -4.5t-10.5 -15.5t-8 -24.5t-7 -37t-7 -47t-8.5 -60.5t-8.5 -73.5t-11 -89t-13 -101.5zM645 1579q0 100 57.5 142t165.5 42 q226 0 226 -184q0 -182 -226 -182q-223 0 -223 182z" />
<glyph unicode="&#xc5;" horiz-adv-x="1251" d="M18 98q123 707 230 1045q16 49 45 88q-82 82 -82 231q0 176 102.5 253t292.5 77q197 0 301.5 -76t104.5 -254q0 -137 -68 -217q35 -37 57 -102q59 -182 134 -531.5t75 -451.5q0 -80 -58 -127t-183 -47q-121 0 -171 43t-67 143l-8 49h-264l-6 -47q-12 -100 -66.5 -144 t-167.5 -44q-51 0 -91 11t-59.5 27.5t-31.5 34t-17 27.5zM492 1454q0 -94 118 -94q115 0 115 94q0 96 -115 96q-119 0 -118 -96zM500 512h178q-12 84 -23.5 172t-16.5 131t-12.5 83t-16.5 53.5t-23 13.5q-6 0 -12.5 -4.5t-10.5 -15.5t-8 -24.5t-7 -37t-7 -47t-8.5 -60.5 t-8.5 -73.5t-11 -89t-13 -101.5z" />
<glyph unicode="&#xc6;" horiz-adv-x="1644" d="M18 98q123 707 230 1045q66 207 373 207q74 0 216 -8.5t218 -8.5h446q59 -53 60 -172q-4 -113 -47.5 -158t-163.5 -45h-238v-167h381q90 0 90 -140q0 -94 -52 -134t-175 -40h-244v-164h449q47 -33 47 -125q0 -111 -55.5 -157.5t-209.5 -46.5l-434 2q-131 2 -185 58 t-54 177h-211l-6 -47q-14 -100 -67.5 -144t-166.5 -44q-51 0 -91 11t-59.5 27.5t-31.5 34t-17 27.5zM500 512h170v358q-1 95 -56 95q-37 0 -54 -70t-48 -293q-8 -59 -12 -90z" />
<glyph unicode="&#xc7;" horiz-adv-x="1085" d="M41 639q0 360 175 539.5t476 179.5q113 0 203 -18.5t125 -36.5l33 -19q4 -14 8 -37.5t7 -84t-7 -107.5t-45 -85t-96 -38q-49 0 -118 11t-102 11q-90 0 -130 -59t-40 -217q0 -176 60.5 -253t177.5 -77q47 0 104.5 10.5t90.5 20.5l34 10q8 -4 19.5 -12t30 -47t18.5 -92 q0 -268 -410 -269q-6 0 -18 1t-16 1q27 -33 87 -56.5t99 -55t39 -97.5q0 -102 -76 -154t-182 -52q-57 0 -104.5 10t-65.5 20l-19 11q2 4 -2 30.5t17.5 57t64.5 30.5q16 0 41 -5t44.5 -8t39 -3t29.5 11t10 34q0 20 -22.5 34.5t-51 23t-51 33t-22.5 61.5q0 49 30 84 q-225 39 -355 210.5t-130 448.5z" />
<glyph unicode="&#xc8;" horiz-adv-x="1062" d="M84 207v989q0 59 46 98t112 39h678q59 -53 59 -172q-4 -113 -47 -158t-164 -45h-238v-167h381q90 0 90 -140q0 -94 -52 -134t-175 -40h-244v-164h449q47 -33 47 -125q0 -111 -55.5 -157.5t-208.5 -46.5h-334q-197 0 -270.5 57t-73.5 166zM231 1659q0 82 46.5 133t93.5 61 l47 11l38.5 -16.5t86 -44.5t108.5 -68.5t86 -83.5t39 -95q0 -53 -22.5 -89.5t-44.5 -49.5l-23 -10q-18 2 -49 5t-109.5 20.5t-138 42t-109 73.5t-49.5 111z" />
<glyph unicode="&#xc9;" horiz-adv-x="1062" d="M84 207v989q0 59 46 98t112 39h678q59 -53 59 -172q-4 -113 -47 -158t-164 -45h-238v-167h381q90 0 90 -140q0 -94 -52 -134t-175 -40h-244v-164h449q47 -33 47 -125q0 -111 -55.5 -157.5t-208.5 -46.5h-334q-197 0 -270.5 57t-73.5 166zM336 1552q0 72 90 149t180 118 l88 41q8 0 20.5 -3.5t44.5 -16.5t56.5 -32.5t45 -60.5t20.5 -92q0 -61 -47.5 -109.5t-114 -74t-133 -42t-113.5 -20.5l-47 -6q-10 4 -25.5 12t-40 46t-24.5 91z" />
<glyph unicode="&#xca;" horiz-adv-x="1062" d="M84 207v989q0 59 46 98t112 39h678q59 -53 59 -172q-4 -113 -47 -158t-164 -45h-238v-167h381q90 0 90 -140q0 -94 -52 -134t-175 -40h-244v-164h449q47 -33 47 -125q0 -111 -55.5 -157.5t-208.5 -46.5h-334q-197 0 -270.5 57t-73.5 166zM158 1524q0 78 134 170t275 92 q92 0 194.5 -53.5t160.5 -106.5l55 -55q0 -59 -54.5 -114.5t-142.5 -55.5q-51 0 -98 16.5t-77 39t-53.5 46t-33.5 39.5l-10 17l-178 -158h-2q-10 -4 -38 0t-57.5 10t-52 36t-22.5 77z" />
<glyph unicode="&#xcb;" horiz-adv-x="1062" d="M82 1579q0 100 57.5 142t165.5 42q225 0 225 -184q0 -182 -225 -182q-223 0 -223 182zM84 207v989q0 59 46 98t112 39h678q59 -53 59 -172q-4 -113 -47 -158t-164 -45h-238v-167h381q90 0 90 -140q0 -94 -52 -134t-175 -40h-244v-164h449q47 -33 47 -125 q0 -111 -55.5 -157.5t-208.5 -46.5h-334q-197 0 -270.5 57t-73.5 166zM584 1579q0 100 57 142t166 42q225 0 225 -184q0 -182 -225 -182q-223 0 -223 182z" />
<glyph unicode="&#xcc;" horiz-adv-x="657" d="M39 1659q0 82 46 133t93 61l47 11q14 -6 39 -16.5t86.5 -44.5t108.5 -68.5t86 -83.5t39 -95q0 -53 -22.5 -89.5t-45.5 -49.5l-22 -10q-18 2 -49 5t-110 20.5t-138.5 42t-108.5 73.5t-49 111zM92 106v1108q0 63 54.5 91t179.5 28q239 0 239 -119v-1108q0 -66 -54 -94 t-181 -28q-238 0 -238 122z" />
<glyph unicode="&#xcd;" horiz-adv-x="657" d="M90 1552q0 72 90 149t180 118l89 41q8 0 20 -3.5t44 -16.5t56.5 -32.5t45 -60.5t20.5 -92q0 -61 -47 -109.5t-113.5 -74t-133.5 -42t-114 -20.5l-47 -6q-10 4 -25.5 12t-40 46t-24.5 91zM92 106v1108q0 63 54.5 91t179.5 28q239 0 239 -119v-1108q0 -66 -54 -94t-181 -28 q-238 0 -238 122z" />
<glyph unicode="&#xce;" horiz-adv-x="657" d="M-68 1524q0 78 134.5 170t275.5 92q92 0 194.5 -53.5t159.5 -106.5l56 -55q0 -59 -54.5 -114.5t-142.5 -55.5q-51 0 -98 16.5t-77 39t-53.5 46t-33.5 39.5l-10 17l-179 -158h-2q-10 -4 -37.5 0t-57.5 10t-52.5 36t-22.5 77zM92 106v1108q0 63 54.5 91t179.5 28 q239 0 239 -119v-1108q0 -66 -54 -94t-181 -28q-238 0 -238 122z" />
<glyph unicode="&#xcf;" horiz-adv-x="657" d="M-143 1579q0 100 57 142t166 42q225 0 225 -184q0 -182 -225 -182q-223 0 -223 182zM92 106v1108q0 63 54.5 91t179.5 28q239 0 239 -119v-1108q0 -66 -54 -94t-181 -28q-238 0 -238 122zM358 1579q0 100 57.5 142t166.5 42q225 0 225 -184q0 -182 -225 -182 q-223 0 -224 182z" />
<glyph unicode="&#xd0;" horiz-adv-x="1314" d="M6 659q0 41 13.5 79t25.5 55l12 16h29v311q0 133 107.5 187.5t412.5 54.5q330 0 499 -173t169 -497q0 -360 -181.5 -541.5t-482.5 -181.5q-283 0 -403.5 77t-120.5 196v266q-80 31 -80 151zM547 348q33 -10 88 -10q166 0 166 313q0 188 -43 256t-129 68q-27 0 -47.5 -2 t-28.5 -6l-6 -2v-156h53q135 0 135 -162q0 -49 -16.5 -87t-32.5 -52l-16 -12h-123v-148z" />
<glyph unicode="&#xd1;" horiz-adv-x="1333" d="M82 121v991q0 133 70.5 177t238.5 44q84 0 135.5 -12t86 -48t54 -76t50.5 -120q6 -14 8 -22l197 -512q-39 227 -39 653q0 74 42 105.5t144 31.5q94 0 138 -32.5t44 -104.5v-971q0 -125 -65.5 -183t-239.5 -58q-131 0 -194.5 61t-122.5 213l-213 535q39 -227 39 -672 q0 -72 -46.5 -104.5t-144.5 -32.5q-94 0 -138 32.5t-44 104.5zM311 1581q0 82 61.5 138.5t168.5 56.5q59 0 144 -37t128 -39q35 0 78 10t67 21l27 10q2 0 7 -2t17.5 -12.5t21.5 -24.5t16.5 -42t7.5 -63q0 -82 -57.5 -138t-166.5 -56q-63 0 -146 38t-130 38q-35 0 -79 -10.5 t-70 -18.5l-25 -10q-2 0 -7 2t-17.5 12t-21.5 24.5t-16.5 41t-7.5 61.5z" />
<glyph unicode="&#xd2;" horiz-adv-x="1353" d="M41 657q0 330 166 515.5t485 185.5q309 0 465 -191.5t156 -498.5q0 -305 -165 -503t-478.5 -198t-471 190.5t-157.5 499.5zM336 1659q0 82 47 133t92 61l47 11q14 -6 39 -16.5t86.5 -44.5t108.5 -68.5t86 -83.5t39 -95q0 -53 -22.5 -89.5t-45.5 -49.5l-22 -10 q-18 2 -49 5t-110 20.5t-138.5 42t-108.5 73.5t-49 111zM526 659q0 -219 35 -293.5t115 -74.5q72 0 107.5 79t35.5 292q0 197 -35.5 271.5t-111.5 74.5q-74 0 -110 -79t-36 -270z" />
<glyph unicode="&#xd3;" horiz-adv-x="1353" d="M41 657q0 330 166 515.5t485 185.5q309 0 465 -191.5t156 -498.5q0 -305 -165 -503t-478.5 -198t-471 190.5t-157.5 499.5zM451 1552q0 72 90 149t180 118l88 41q8 0 20.5 -3.5t44 -16.5t56 -32.5t45 -60.5t20.5 -92q0 -61 -47 -109.5t-113.5 -74t-133 -42t-113.5 -20.5 l-47 -6q-10 4 -25.5 12t-40 46t-24.5 91zM526 659q0 -219 35 -293.5t115 -74.5q72 0 107.5 79t35.5 292q0 197 -35.5 271.5t-111.5 74.5q-74 0 -110 -79t-36 -270z" />
<glyph unicode="&#xd4;" horiz-adv-x="1353" d="M41 657q0 330 166 515.5t485 185.5q309 0 465 -191.5t156 -498.5q0 -305 -165 -503t-478.5 -198t-471 190.5t-157.5 499.5zM281 1526q0 78 134 170t275 92q92 0 194.5 -54.5t159.5 -107.5l56 -53q0 -59 -54.5 -114.5t-142.5 -55.5q-82 0 -149.5 40t-94.5 79l-28 39 l-178 -158h-2q-10 -4 -38 0t-57.5 10t-52 36t-22.5 77zM526 659q0 -219 35 -293.5t115 -74.5q72 0 107.5 79t35.5 292q0 197 -35.5 271.5t-111.5 74.5q-74 0 -110 -79t-36 -270z" />
<glyph unicode="&#xd5;" horiz-adv-x="1353" d="M41 657q0 330 166 515.5t485 185.5q309 0 465 -191.5t156 -498.5q0 -305 -165 -503t-478.5 -198t-471 190.5t-157.5 499.5zM319 1581q0 82 61.5 138.5t168.5 56.5q59 0 144 -37t128 -39q35 0 78 10t68 21l26 10q2 0 7.5 -2t17.5 -12.5t21.5 -24.5t16.5 -42t7 -63 q0 -82 -57.5 -138t-165.5 -56q-63 0 -146.5 38t-130.5 38q-35 0 -79 -10.5t-70 -18.5l-25 -10q-2 0 -7 2t-17.5 12t-21.5 24.5t-16.5 41t-7.5 61.5zM526 659q0 -219 35 -293.5t115 -74.5q72 0 107.5 79t35.5 292q0 197 -35.5 271.5t-111.5 74.5q-74 0 -110 -79t-36 -270z " />
<glyph unicode="&#xd6;" horiz-adv-x="1353" d="M41 657q0 330 166 515.5t485 185.5q309 0 465 -191.5t156 -498.5q0 -305 -165 -503t-478.5 -198t-471 190.5t-157.5 499.5zM203 1579q0 100 57 142t166 42q225 0 225 -184q0 -182 -225 -182q-223 0 -223 182zM526 659q0 -219 35 -293.5t115 -74.5q72 0 107.5 79t35.5 292 q0 197 -35.5 271.5t-111.5 74.5q-74 0 -110 -79t-36 -270zM705 1579q0 100 57 142t166 42q225 0 225 -184q0 -182 -225 -182q-223 0 -223 182z" />
<glyph unicode="&#xd7;" horiz-adv-x="1124" d="M82 1004v19t8 42t23.5 54.5t53.5 43t89 19.5q131 0 332 -197l223 197q10 2 25.5 3t56.5 -2t72.5 -16.5t57.5 -50.5t26 -92q0 -119 -209 -336q57 -76 111.5 -156.5t80.5 -121.5l25 -43q0 -6 -1 -15.5t-8.5 -35t-21.5 -45t-47 -35t-78 -15.5q-129 0 -346 209 q-72 -59 -146.5 -116.5t-113.5 -84.5l-39 -28q-6 2 -17.5 4t-39 14t-49 28.5t-39 47.5t-17.5 67q0 109 209 345q-57 72 -112.5 145.5t-81.5 112.5z" />
<glyph unicode="&#xd8;" horiz-adv-x="1353" d="M41 657q0 330 166 515.5t485 185.5q-2 23 3 48.5t21.5 62t60.5 61t112 24.5q39 0 71.5 -10t50 -24.5t30 -28.5t16.5 -25l4 -10l-49 -172q150 -84 225.5 -244.5t75.5 -371.5q0 -197 -66.5 -350.5t-214 -251t-356.5 -99.5l-6 -65q-8 -78 -58.5 -117t-122.5 -39 q-55 0 -93 19.5t-48 37.5l-10 21l47 196q-172 76 -258 243t-86 394zM526 659q0 -219 35 -293.5t115 -74.5q72 0 107.5 79t35.5 292q0 197 -35.5 271.5t-111.5 74.5q-74 0 -110 -79t-36 -270z" />
<glyph unicode="&#xd9;" horiz-adv-x="1312" d="M78 1214q0 63 54 91t179 28q240 0 240 -119v-731q0 -106 29.5 -148t99.5 -42t101.5 43t31.5 153l-2 725q0 63 49 91t162 28q217 0 217 -119v-677q0 -252 -144.5 -410t-435.5 -158q-289 0 -434 143.5t-145 417.5zM315 1659q0 82 47.5 133t92.5 61l47 11l38.5 -16.5 t86 -44.5t108.5 -68.5t86 -83.5t39 -95q0 -53 -22.5 -89.5t-44.5 -49.5l-23 -10q-18 2 -49 5t-110 20.5t-138 42t-108.5 73.5t-49.5 111z" />
<glyph unicode="&#xda;" horiz-adv-x="1312" d="M78 1214q0 63 54 91t179 28q240 0 240 -119v-731q0 -106 29.5 -148t99.5 -42t101.5 43t31.5 153l-2 725q0 63 49 91t162 28q217 0 217 -119v-677q0 -252 -144.5 -410t-435.5 -158q-289 0 -434 143.5t-145 417.5zM442 1552q0 72 90.5 149t180.5 118l88 41q8 0 20.5 -3.5 t44 -16.5t56 -32.5t45 -60.5t20.5 -92q0 -61 -47 -109.5t-113.5 -74t-133 -42t-113.5 -20.5l-48 -6q-10 4 -25 12t-40 46t-25 91z" />
<glyph unicode="&#xdb;" horiz-adv-x="1312" d="M78 1214q0 63 54 91t179 28q240 0 240 -119v-731q0 -106 29.5 -148t99.5 -42t101.5 43t31.5 153l-2 725q0 63 49 91t162 28q217 0 217 -119v-677q0 -252 -144.5 -410t-435.5 -158q-289 0 -434 143.5t-145 417.5zM254 1526q0 78 134 170t276 92q92 0 194.5 -54.5 t157.5 -107.5l57 -53q0 -59 -54 -114.5t-142 -55.5q-82 0 -150 40t-96 79l-27 39l-178 -158h-2q-10 -4 -38 0t-57.5 10t-52 36t-22.5 77z" />
<glyph unicode="&#xdc;" horiz-adv-x="1312" d="M78 1214q0 63 54 91t179 28q240 0 240 -119v-731q0 -106 29.5 -148t99.5 -42t101.5 43t31.5 153l-2 725q0 63 49 91t162 28q217 0 217 -119v-677q0 -252 -144.5 -410t-435.5 -158q-289 0 -434 143.5t-145 417.5zM205 1579q0 100 57 142t166 42q225 0 225 -184 q0 -182 -225 -182q-223 0 -223 182zM707 1579q0 100 57 142t166 42q225 0 225 -184q0 -182 -225 -182q-223 0 -223 182z" />
<glyph unicode="&#xdd;" horiz-adv-x="1210" d="M0 1212q0 61 66.5 104.5t160.5 43.5q119 0 179.5 -43t97.5 -152q33 -94 66.5 -227t52.5 -221l18 -86l129 663q6 6 19.5 17.5t66.5 29t123 17.5q219 0 219 -148q0 -203 -139 -471t-223 -325v-310q0 -66 -53.5 -93t-178.5 -27q-231 0 -231 120v320q-37 57 -91.5 153.5 t-139.5 281.5t-142 353zM358 1552q0 72 89.5 149t179.5 118l90 41q8 0 20.5 -3.5t44 -16.5t56 -32.5t45 -60.5t20.5 -92q0 -61 -47 -109.5t-113.5 -74t-133 -42t-113.5 -20.5l-47 -6q-10 4 -25.5 12t-40.5 46t-25 91z" />
<glyph unicode="&#xde;" horiz-adv-x="1136" d="M78 23v1339q0 59 49 85t166 26q215 0 215 -111v-135q6 8 19.5 19t67.5 29.5t122 18.5q190 0 286.5 -134t96.5 -425q0 -295 -131 -441.5t-326 -146.5q-80 0 -135 23v-147q0 -55 -49 -81t-164 -26q-217 1 -217 107zM508 403q84 -14 133 76.5t49 225.5q0 139 -33.5 189 t-105.5 50l-43 -6v-535z" />
<glyph unicode="&#xdf;" horiz-adv-x="1251" d="M82 94v867q0 225 125 348t418 123q260 0 396 -110t136 -294q0 -80 -21.5 -144.5t-52 -100t-62.5 -59.5t-54 -32l-21 -6v-22q12 -2 30.5 -6.5t68 -28t86 -58t67.5 -104.5t31 -160q0 -141 -98.5 -239.5t-286.5 -98.5q-156 0 -218.5 48.5t-62.5 138.5q0 47 11.5 82.5 t23.5 48.5l12 10q68 -12 119 -12q59 0 59 59q0 31 -33.5 58.5t-74.5 48t-75 69.5t-34 117q0 55 17.5 96t43 65.5t51.5 46t43 50.5t17 66q0 61 -24.5 86.5t-85.5 25.5q-68 0 -94.5 -37t-26.5 -118v-824q0 -59 -49 -84.5t-166 -25.5q-215 -1 -215 110z" />
<glyph unicode="&#xe0;" d="M37 264q0 147 113.5 221t408.5 74q0 16 1 54t1 51q0 92 -96 92q-47 0 -127 -34t-129 -34q-168 0 -168 184q0 47 9 88t20 60l8 16q205 94 424 94q250 0 365.5 -92t115.5 -338q0 -90 -14.5 -229t-14.5 -170q0 -25 20.5 -36t41.5 -11l22 2q4 -10 9.5 -28.5t6.5 -65.5 t-16.5 -83t-74 -65.5t-148.5 -29.5q-160 0 -223 86q-102 -86 -234 -86q-158 0 -239.5 78.5t-81.5 201.5zM223 1438q0 82 46 133t93 61l48 10q14 -6 38.5 -16t86 -44t108.5 -68.5t86 -84t39 -94.5q0 -53 -22.5 -90t-45.5 -49l-22 -10q-18 2 -49 5t-110 20.5t-138 42 t-108.5 73.5t-49.5 111zM389 289q0 -76 82 -76q18 0 36.5 7t29.5 13l8 9v14q0 41 4 119l-148 -23q-12 -20 -12 -63z" />
<glyph unicode="&#xe1;" d="M37 264q0 147 113.5 221t408.5 74q0 16 1 54t1 51q0 92 -96 92q-47 0 -127 -34t-129 -34q-168 0 -168 184q0 47 9 88t20 60l8 16q205 94 424 94q250 0 365.5 -92t115.5 -338q0 -90 -14.5 -229t-14.5 -170q0 -25 20.5 -36t41.5 -11l22 2q4 -10 9.5 -28.5t6.5 -65.5 t-16.5 -83t-74 -65.5t-148.5 -29.5q-160 0 -223 86q-102 -86 -234 -86q-158 0 -239.5 78.5t-81.5 201.5zM287 1333q0 72 90 149t180 117l88 41q8 0 20.5 -3t44 -16t56.5 -32.5t45 -60.5t20 -92q0 -61 -47 -109.5t-113.5 -74t-133 -42t-113.5 -22.5l-47 -4q-10 4 -25.5 12 t-40 46t-24.5 91zM389 289q0 -76 82 -76q18 0 36.5 7t29.5 13l8 9v14q0 41 4 119l-148 -23q-12 -20 -12 -63z" />
<glyph unicode="&#xe2;" d="M37 264q0 147 113.5 221t408.5 74q0 16 1 54t1 51q0 92 -96 92q-47 0 -127 -34t-129 -34q-168 0 -168 184q0 47 9 88t20 60l8 16q205 94 424 94q250 0 365.5 -92t115.5 -338q0 -90 -14.5 -229t-14.5 -170q0 -25 20.5 -36t41.5 -11l22 2q4 -10 9.5 -28.5t6.5 -65.5 t-16.5 -83t-74 -65.5t-148.5 -29.5q-160 0 -223 86q-102 -86 -234 -86q-158 0 -239.5 78.5t-81.5 201.5zM135 1307q0 78 134 170t276 92q92 0 194.5 -53.5t157.5 -106.5l57 -55q0 -59 -54 -114.5t-142 -55.5q-51 0 -98.5 16.5t-77 39t-53 46t-33.5 39.5l-11 16l-178 -157h-2 q-10 -4 -37.5 0t-57.5 10t-52.5 36t-22.5 77zM389 289q0 -76 82 -76q18 0 36.5 7t29.5 13l8 9v14q0 41 4 119l-148 -23q-12 -20 -12 -63z" />
<glyph unicode="&#xe3;" d="M37 264q0 147 113.5 221t408.5 74q0 16 1 54t1 51q0 92 -96 92q-47 0 -127 -34t-129 -34q-168 0 -168 184q0 47 9 88t20 60l8 16q205 94 424 94q250 0 365.5 -92t115.5 -338q0 -90 -14.5 -229t-14.5 -170q0 -25 20.5 -36t41.5 -11l22 2q4 -10 9.5 -28.5t6.5 -65.5 t-16.5 -83t-74 -65.5t-148.5 -29.5q-160 0 -223 86q-102 -86 -234 -86q-158 0 -239.5 78.5t-81.5 201.5zM178 1358q0 82 61.5 138t168.5 56q59 0 144 -36.5t128 -38.5q35 0 78 10t69 20l25 11q2 0 7 -2.5t17.5 -12.5t21.5 -24.5t16.5 -42t7.5 -62.5q0 -82 -57.5 -138 t-166.5 -56q-63 0 -146 37.5t-130 37.5q-35 0 -79 -9t-69 -19l-26 -10q-2 0 -7 2t-17.5 12t-21.5 24.5t-16.5 41t-7.5 61.5zM389 289q0 -76 82 -76q18 0 36.5 7t29.5 13l8 9v14q0 41 4 119l-148 -23q-12 -20 -12 -63z" />
<glyph unicode="&#xe4;" d="M37 264q0 147 113.5 221t408.5 74q0 16 1 54t1 51q0 92 -96 92q-47 0 -127 -34t-129 -34q-168 0 -168 184q0 47 9 88t20 60l8 16q205 94 424 94q250 0 365.5 -92t115.5 -338q0 -90 -14.5 -229t-14.5 -170q0 -25 20.5 -36t41.5 -11l22 2q4 -10 9.5 -28.5t6.5 -65.5 t-16.5 -83t-74 -65.5t-148.5 -29.5q-160 0 -223 86q-102 -86 -234 -86q-158 0 -239.5 78.5t-81.5 201.5zM53 1366q0 100 57.5 142t165.5 42q226 0 226 -184q0 -182 -226 -182q-223 0 -223 182zM389 289q0 -76 82 -76q18 0 36.5 7t29.5 13l8 9v14q0 41 4 119l-148 -23 q-12 -20 -12 -63zM555 1366q0 100 57.5 142t165.5 42q226 0 226 -184q0 -182 -226 -182q-223 0 -223 182z" />
<glyph unicode="&#xe5;" d="M37 264q0 147 113.5 221t408.5 74q0 16 1 54t1 51q0 92 -96 92q-47 0 -127 -34t-129 -34q-168 0 -168 184q0 47 9 88t20 60l8 16q205 94 424 94q250 0 365.5 -92t115.5 -338q0 -90 -14.5 -229t-14.5 -170q0 -25 20.5 -36t41.5 -11l22 2q4 -10 9.5 -28.5t6.5 -65.5 t-16.5 -83t-74 -65.5t-148.5 -29.5q-160 0 -223 86q-102 -86 -234 -86q-158 0 -239.5 78.5t-81.5 201.5zM170 1468q0 287 346 287q172 0 262 -66.5t90 -220t-91 -219t-261 -65.5q-346 0 -346 284zM389 289q0 -76 82 -76q18 0 36.5 7t29.5 13l8 9v14q0 41 4 119l-148 -23 q-12 -20 -12 -63zM416 1460q0 -82 102 -82q100 0 100 82q0 84 -100 84q-102 0 -102 -84z" />
<glyph unicode="&#xe6;" horiz-adv-x="1570" d="M35 276q0 141 116.5 206t405.5 67q6 33 6 82q0 59 -26.5 84.5t-98.5 25.5q-57 0 -134 -27.5t-120 -27.5q-72 0 -101.5 46t-29.5 149q0 47 8.5 83.5t16.5 51.5l8 14q20 10 56 27.5t139.5 45t201.5 27.5q109 0 193 -16t115 -33l28 -18v-2q119 70 283 69q211 0 323.5 -111.5 t112.5 -322.5q0 -57 -8 -111.5t-17 -80.5l-8 -25h-530q14 -109 68.5 -151.5t152.5 -42.5q66 0 127 15t90 30l29 14q8 -2 21.5 -7t36 -37t22.5 -79q0 -100 -108.5 -176t-313.5 -76q-250 0 -395 146v-4q-119 -129 -324 -129q-168 0 -257 85t-89 209zM362 311q0 -43 27 -70.5 t74 -27.5q57 0 137 53q-20 55 -29 101q-164 0 -188 -13q-20 -10 -21 -43zM975 649l219 17v24q0 55 -24.5 86t-63.5 31q-59 0 -91 -33t-40 -125z" />
<glyph unicode="&#xe7;" horiz-adv-x="907" d="M33 528q0 301 147.5 451.5t397.5 150.5q104 0 181 -14t101 -29l25 -14q4 -12 8 -33.5t7 -77t-7 -97.5t-47 -76.5t-101 -34.5q-47 0 -102 9t-80 9q-49 0 -85 -50t-36 -163q0 -281 220 -280q35 0 76.5 8t66.5 16l24 8q2 0 7.5 -3t17.5 -12t21.5 -23.5t17.5 -40t8 -56.5 q0 -207 -342 -207h-20q25 -18 83 -40.5t89.5 -53.5t31.5 -92q0 -102 -75.5 -154.5t-182.5 -52.5q-57 0 -104 10.5t-66 20.5l-18 10q2 4 -2 30.5t17.5 57.5t64.5 31q16 0 40.5 -5t44 -8.5t39 -3.5t30 11.5t10.5 33.5q0 20 -22.5 35t-51.5 23t-51.5 32.5t-22.5 61.5t19 70 q-182 39 -280.5 179t-98.5 363z" />
<glyph unicode="&#xe8;" horiz-adv-x="1044" d="M35 512q0 303 145.5 460.5t392.5 157.5q209 0 323 -110.5t114 -308.5q0 -68 -14.5 -126.5t-28.5 -80.5l-15 -25l-503 -16q27 -178 219 -178q55 0 113.5 15t86.5 30l31 14q10 -4 23.5 -12t37 -44t23.5 -83q0 -100 -100.5 -168t-311.5 -68q-262 0 -399 150.5t-137 392.5z M193 1438q0 82 47 133t92 61l47 10q14 -6 38.5 -16t86 -44t108.5 -68.5t86 -84t39 -94.5q0 -53 -22.5 -90t-44.5 -49l-23 -10q-18 2 -49 5t-109.5 20.5t-138 42t-108.5 73.5t-49 111zM446 649l213 17q4 20 5 51q0 43 -23.5 66.5t-62.5 23.5q-115 0 -132 -158z" />
<glyph unicode="&#xe9;" horiz-adv-x="1044" d="M35 512q0 303 145.5 460.5t392.5 157.5q209 0 323 -110.5t114 -308.5q0 -68 -14.5 -126.5t-28.5 -80.5l-15 -25l-503 -16q27 -178 219 -178q55 0 113.5 15t86.5 30l31 14q10 -4 23.5 -12t37 -44t23.5 -83q0 -100 -100.5 -168t-311.5 -68q-262 0 -399 150.5t-137 392.5z M309 1331q0 72 90 148.5t179 117.5l90 41q8 0 20 -3t44 -16t56.5 -32.5t45 -60.5t20.5 -92q0 -61 -47 -109.5t-113.5 -74t-133 -42t-114.5 -20.5l-47 -6q-10 4 -25.5 12t-40 46t-24.5 91zM446 649l213 17q4 20 5 51q0 43 -23.5 66.5t-62.5 23.5q-115 0 -132 -158z" />
<glyph unicode="&#xea;" horiz-adv-x="1044" d="M35 512q0 303 145.5 460.5t392.5 157.5q209 0 323 -110.5t114 -308.5q0 -68 -14.5 -126.5t-28.5 -80.5l-15 -25l-503 -16q27 -178 219 -178q55 0 113.5 15t86.5 30l31 14q10 -4 23.5 -12t37 -44t23.5 -83q0 -100 -100.5 -168t-311.5 -68q-262 0 -399 150.5t-137 392.5z M137 1307q0 78 134.5 170t275.5 92q92 0 194.5 -53.5t159.5 -106.5l55 -55q0 -59 -54 -114.5t-142 -55.5q-51 0 -98.5 16.5t-77 39t-53 46t-33.5 39.5l-11 16l-178 -157h-2q-10 -4 -37.5 0t-57.5 10t-52.5 36t-22.5 77zM446 649l213 17q4 20 5 51q0 43 -23.5 66.5 t-62.5 23.5q-115 0 -132 -158z" />
<glyph unicode="&#xeb;" horiz-adv-x="1044" d="M35 512q0 303 145.5 460.5t392.5 157.5q209 0 323 -110.5t114 -308.5q0 -68 -14.5 -126.5t-28.5 -80.5l-15 -25l-503 -16q27 -178 219 -178q55 0 113.5 15t86.5 30l31 14q10 -4 23.5 -12t37 -44t23.5 -83q0 -100 -100.5 -168t-311.5 -68q-262 0 -399 150.5t-137 392.5z M72 1364q0 100 57 142t166 42q225 0 225 -184q0 -182 -225 -182q-223 0 -223 182zM446 649l213 17q4 20 5 51q0 43 -23.5 66.5t-62.5 23.5q-115 0 -132 -158zM573 1364q0 100 57.5 142t166.5 42q225 0 225 -184q0 -182 -225 -182q-223 0 -224 182z" />
<glyph unicode="&#xec;" horiz-adv-x="598" d="M-53 1434q0 82 46 133t93 61l47 10q14 -6 39 -16t86 -44t108.5 -68.5t86.5 -84t39 -94.5q0 -53 -23 -90t-45 -49l-23 -10q-18 2 -48.5 5t-109.5 20.5t-138.5 42t-108.5 73.5t-49 111zM84 94v903q0 55 49 81t164 26q217 -1 217 -107v-903q0 -59 -49 -84.5t-166 -25.5 q-113 0 -164 25.5t-51 84.5z" />
<glyph unicode="&#xed;" horiz-adv-x="598" d="M63 1331q0 72 89.5 148.5t179.5 117.5l90 41q8 0 20.5 -3t44 -16t56 -32.5t45 -60.5t20.5 -92q0 -61 -47 -109.5t-113.5 -74t-133 -42t-113.5 -20.5l-47 -6q-10 4 -25.5 12t-40.5 46t-25 91zM84 94v903q0 55 49 81t164 26q217 -1 217 -107v-903q0 -59 -49 -84.5 t-166 -25.5q-113 0 -164 25.5t-51 84.5z" />
<glyph unicode="&#xee;" horiz-adv-x="598" d="M-109 1305q0 78 134.5 170t275.5 92q92 0 194.5 -54.5t159.5 -107.5l56 -53q0 -59 -54.5 -114.5t-142.5 -55.5q-82 0 -149.5 40t-94.5 78l-28 39l-179 -157h-2q-10 -4 -37.5 0t-57 10t-52.5 35.5t-23 77.5zM84 94v903q0 55 49 81t164 26q217 -1 217 -107v-903 q0 -59 -49 -84.5t-166 -25.5q-113 0 -164 25.5t-51 84.5z" />
<glyph unicode="&#xef;" horiz-adv-x="598" d="M-82 1327.5q0 149.5 182.5 149.5t182.5 -149.5t-182.5 -149.5t-182.5 149.5zM84 94v903q0 55 49 81t164 26q217 -1 217 -107v-903q0 -59 -49 -84.5t-166 -25.5q-113 0 -164 25.5t-51 84.5zM326 1327.5q0 149.5 182 149.5t182 -149.5t-182 -149.5t-182 149.5z" />
<glyph unicode="&#xf0;" horiz-adv-x="1165" d="M45 541q0 303 147.5 445t395.5 142h33l-7 33q-98 16 -138 44t-40 71q0 33 9.5 58.5t19.5 33.5l10 10h82l-51 121q4 10 16.5 25.5t63.5 41t121 25.5q176 0 278 -237q180 -29 180 -119q0 -27 -10 -51.5t-20 -36.5l-11 -10h-75q39 -207 38 -459q0 -137 -23.5 -253 t-75.5 -219.5t-152.5 -162.5t-241.5 -59q-258 0 -403.5 141t-145.5 416zM455 500q0 -242 106 -242q37 0 56.5 24.5t32 107.5t12.5 245q0 106 -7 199h-2q-90 0 -144 -86t-54 -248z" />
<glyph unicode="&#xf1;" horiz-adv-x="1148" d="M78 94v903q0 55 49 81t164 26q217 0 217 -107v-10q55 143 242 143q168 0 248.5 -100t80.5 -319v-617q0 -111 -215 -110.5t-215 110.5v568q0 68 -20.5 93t-79.5 25q-16 0 -41 -6v-680q0 -111 -215 -111t-215 111zM199 1358q0 82 61.5 138t167.5 56q59 0 144 -36.5 t128 -38.5q35 0 78 10t70 20l24 11q2 0 7.5 -2.5t17.5 -12.5t21.5 -24.5t16.5 -42t7 -62.5q0 -82 -57.5 -138t-165.5 -56q-63 0 -146.5 37.5t-130.5 37.5q-35 0 -79 -9t-68 -19l-27 -10q-2 0 -7 2t-17.5 12t-21.5 24.5t-16 41t-7 61.5z" />
<glyph unicode="&#xf2;" horiz-adv-x="1116" d="M33 551q0 274 139.5 426.5t407.5 152.5q242 0 372.5 -160.5t130.5 -412.5q0 -256 -135 -422t-397 -166t-390 161t-128 421zM248 1438q0 82 46 133t93 61l47 10q14 -6 39 -16t86.5 -44t108.5 -68.5t86 -84t39 -94.5q0 -53 -22.5 -90t-45.5 -49l-23 -10q-18 2 -48.5 5 t-109.5 20.5t-138.5 42t-108.5 73.5t-49 111zM446 547q0 -162 27 -217.5t86 -55.5q51 0 78 58.5t27 216.5q0 143 -27 198.5t-82 55.5t-82 -58.5t-27 -197.5z" />
<glyph unicode="&#xf3;" horiz-adv-x="1116" d="M33 551q0 274 139.5 426.5t407.5 152.5q242 0 372.5 -160.5t130.5 -412.5q0 -256 -135 -422t-397 -166t-390 161t-128 421zM289 1331q0 72 90 148.5t178 117.5l90 41q8 0 20.5 -3t44 -16t56.5 -32.5t45.5 -60.5t20.5 -92q0 -61 -47.5 -109.5t-114 -74t-133 -42 t-113.5 -20.5l-47 -6q-10 4 -25.5 12t-40 46t-24.5 91zM446 547q0 -162 27 -217.5t86 -55.5q51 0 78 58.5t27 216.5q0 143 -27 198.5t-82 55.5t-82 -58.5t-27 -197.5z" />
<glyph unicode="&#xf4;" horiz-adv-x="1116" d="M33 551q0 274 139.5 426.5t407.5 152.5q242 0 372.5 -160.5t130.5 -412.5q0 -256 -135 -422t-397 -166t-390 161t-128 421zM160 1305q0 78 134 170t275 92q92 0 194.5 -54.5t158.5 -107.5l57 -53q0 -59 -54.5 -114.5t-142.5 -55.5q-82 0 -149.5 40t-95.5 78l-27 39 l-178 -157h-2q-10 -4 -38 0t-57.5 10t-52 35.5t-22.5 77.5zM446 547q0 -162 27 -217.5t86 -55.5q51 0 78 58.5t27 216.5q0 143 -27 198.5t-82 55.5t-82 -58.5t-27 -197.5z" />
<glyph unicode="&#xf5;" horiz-adv-x="1116" d="M33 551q0 274 139.5 426.5t407.5 152.5q242 0 372.5 -160.5t130.5 -412.5q0 -256 -135 -422t-397 -166t-390 161t-128 421zM199 1358q0 82 61.5 138t167.5 56q59 0 144 -36.5t128 -38.5q35 0 78 10t70 20l24 11q2 0 7.5 -2.5t17.5 -12.5t21.5 -24.5t16.5 -42t7 -62.5 q0 -82 -57.5 -138t-165.5 -56q-63 0 -146.5 37.5t-130.5 37.5q-35 0 -79 -9t-68 -19l-27 -10q-2 0 -7 2t-17.5 12t-21.5 24.5t-16 41t-7 61.5zM446 547q0 -162 27 -217.5t86 -55.5q51 0 78 58.5t27 216.5q0 143 -27 198.5t-82 55.5t-82 -58.5t-27 -197.5z" />
<glyph unicode="&#xf6;" horiz-adv-x="1116" d="M33 551q0 274 139.5 426.5t407.5 152.5q242 0 372.5 -160.5t130.5 -412.5q0 -256 -135 -422t-397 -166t-390 161t-128 421zM84 1368q0 100 57.5 142t165.5 42q225 0 225 -184q0 -182 -225 -182q-223 0 -223 182zM446 547q0 -162 27 -217.5t86 -55.5q51 0 78 58.5 t27 216.5q0 143 -27 198.5t-82 55.5t-82 -58.5t-27 -197.5zM586 1368q0 100 57 142t166 42q225 0 225 -184q0 -182 -225 -182q-223 0 -223 182z" />
<glyph unicode="&#xf7;" horiz-adv-x="1144" d="M82 702q0 35 10 67t23 46l10 12h823q113 0 113 -135q0 -43 -14.5 -74.5t-26.5 -44.5l-14 -10h-799q-125 0 -125 139zM391 360q0 152 182 152q187 0 187 -152q0 -150 -187 -149q-182 0 -182 149zM391 1030q0 152 182 152q187 0 187 -152q0 -150 -187 -149q-182 0 -182 149 z" />
<glyph unicode="&#xf8;" horiz-adv-x="1116" d="M33 551q0 274 139.5 426.5t407.5 152.5q23 0 34 -2q0 20 5.5 42t19.5 52.5t50 49t89 18.5q51 0 87 -20.5t46 -40.5l11 -21l-48 -166q209 -150 209 -485q0 -242 -122.5 -404.5t-360.5 -181.5l-6 -61q-8 -66 -48 -98.5t-102 -32.5q-45 0 -76.5 16.5t-39.5 32.5l-11 16 l37 156q-162 55 -241.5 201.5t-79.5 349.5zM446 547q0 -162 27 -217.5t86 -55.5q51 0 78 58.5t27 216.5q0 143 -27 198.5t-82 55.5t-82 -58.5t-27 -197.5z" />
<glyph unicode="&#xf9;" horiz-adv-x="1159" d="M70 311v686q0 55 49 81t164 26q217 0 217 -107v-635q0 -96 86 -96q31 0 55 6v725q0 55 49 81t164 26q217 0 217 -107v-700q0 -23 21.5 -33t42.5 -10l20 2q4 -10 9 -28.5t6 -65.5t-16 -83t-73.5 -65.5t-148.5 -29.5q-170 0 -242 98q-70 -98 -266 -98q-176 0 -265 90 t-89 237zM266 1434q0 82 47 133t93 61l47 10q14 -6 38.5 -16t86 -44t108.5 -68.5t86 -84t39 -94.5q0 -53 -22.5 -90t-45.5 -49l-22 -10q-18 2 -49 5t-110 20.5t-138 42t-108.5 73.5t-49.5 111z" />
<glyph unicode="&#xfa;" horiz-adv-x="1159" d="M70 311v686q0 55 49 81t164 26q217 0 217 -107v-635q0 -96 86 -96q31 0 55 6v725q0 55 49 81t164 26q217 0 217 -107v-700q0 -23 21.5 -33t42.5 -10l20 2q4 -10 9 -28.5t6 -65.5t-16 -83t-73.5 -65.5t-148.5 -29.5q-170 0 -242 98q-70 -98 -266 -98q-176 0 -265 90 t-89 237zM301 1331q0 72 90 148.5t178 117.5l90 41q8 0 20.5 -3t44.5 -16t56.5 -32.5t45 -60.5t20.5 -92q0 -61 -47 -109.5t-114 -74t-133.5 -42t-113.5 -20.5l-47 -6q-10 4 -25.5 12t-40 46t-24.5 91z" />
<glyph unicode="&#xfb;" horiz-adv-x="1159" d="M70 311v686q0 55 49 81t164 26q217 0 217 -107v-635q0 -96 86 -96q31 0 55 6v725q0 55 49 81t164 26q217 0 217 -107v-700q0 -23 21.5 -33t42.5 -10l20 2q4 -10 9 -28.5t6 -65.5t-16 -83t-73.5 -65.5t-148.5 -29.5q-170 0 -242 98q-70 -98 -266 -98q-176 0 -265 90 t-89 237zM178 1305q0 78 134 170t276 92q92 0 194.5 -54.5t159.5 -107.5l55 -53q0 -59 -54 -114.5t-142 -55.5q-82 0 -149.5 40t-94.5 78l-29 39l-178 -157h-2q-10 -4 -37.5 0t-57.5 10t-52.5 35.5t-22.5 77.5z" />
<glyph unicode="&#xfc;" horiz-adv-x="1159" d="M70 311v686q0 55 49 81t164 26q217 0 217 -107v-635q0 -96 86 -96q31 0 55 6v725q0 55 49 81t164 26q217 0 217 -107v-700q0 -23 21.5 -33t42.5 -10l20 2q4 -10 9 -28.5t6 -65.5t-16 -83t-73.5 -65.5t-148.5 -29.5q-170 0 -242 98q-70 -98 -266 -98q-176 0 -265 90 t-89 237zM96 1364q0 100 57.5 142t165.5 42q226 0 226 -184q0 -182 -226 -182q-223 0 -223 182zM598 1364q0 100 57.5 142t165.5 42q226 0 226 -184q0 -182 -226 -182q-223 0 -223 182z" />
<glyph unicode="&#xfd;" horiz-adv-x="1064" d="M-4 1008q0 4 1 13t12 29.5t29.5 37t58.5 29.5t96 13q72 0 115.5 -19t79.5 -62t61.5 -143.5t47 -226.5t48.5 -347l94 717q4 8 15.5 22t61.5 36.5t115 22.5q117 0 162 -31.5t45 -107.5q0 -63 -95 -367.5t-189 -576.5l-97 -272q-8 -8 -23.5 -20.5t-72.5 -32t-125 -19.5 q-193 0 -192 168q0 49 24.5 96t48.5 70l25 22zM285 1333q0 72 90 149t178 117l90 41q8 0 20.5 -3t44 -16t56 -32.5t45 -60.5t20.5 -92q0 -61 -47 -109.5t-113.5 -74t-133 -42t-113.5 -22.5l-47 -4q-10 4 -25.5 12t-40 46t-24.5 91z" />
<glyph unicode="&#xfe;" horiz-adv-x="1136" d="M78 -139v1325q0 59 49 84.5t166 25.5q215 0 215 -110v-203q55 150 244 150q168 0 258 -141.5t90 -418.5q0 -295 -131 -441t-326 -146q-80 0 -135 22v-147q0 -55 -49 -81t-164 -26q-217 1 -217 107zM508 242q84 -14 133 76t49 225q0 139 -33.5 189t-105.5 50q-18 0 -43 -6 v-534z" />
<glyph unicode="&#xff;" horiz-adv-x="1064" d="M-4 1008q0 4 1 13t12 29.5t29.5 37t58.5 29.5t96 13q72 0 115.5 -19t79.5 -62t61.5 -143.5t47 -226.5t48.5 -347l94 717q4 8 15.5 22t61.5 36.5t115 22.5q117 0 162 -31.5t45 -107.5q0 -63 -95 -367.5t-189 -576.5l-97 -272q-8 -8 -23.5 -20.5t-72.5 -32t-125 -19.5 q-193 0 -192 168q0 49 24.5 96t48.5 70l25 22zM57 1368q0 100 57.5 142t166.5 42q225 0 225 -184q0 -182 -225 -182q-223 0 -224 182zM559 1368q0 100 57.5 142t165.5 42q226 0 226 -184q0 -182 -226 -182q-223 0 -223 182z" />
<glyph unicode="&#x152;" horiz-adv-x="1761" d="M41 657q0 330 166 515.5t485 185.5q143 0 267 -12.5t147 -12.5h512q59 -53 59 -172q-4 -113 -47 -158t-164 -45h-237v-167h381q90 0 90 -140q0 -94 -52.5 -134t-174.5 -40h-244v-164h448q47 -33 47 -125q0 -111 -55 -157.5t-209 -46.5h-215q-86 0 -280.5 -7.5 t-294.5 -7.5q-313 0 -471 190.5t-158 497.5zM526 659q0 -219 35 -293.5t115 -74.5q35 0 61.5 6t36.5 12l8 6v670q-39 23 -110 23q-74 0 -110 -79t-36 -270z" />
<glyph unicode="&#x153;" horiz-adv-x="1677" d="M33 551q0 274 139 426.5t408 152.5q180 0 305 -96q131 96 323 96q211 0 324 -111.5t113 -322.5q0 -57 -8.5 -111.5t-16.5 -80.5l-8 -25h-531q14 -109 69 -151.5t153 -42.5q66 0 127 15t90 30l28 14q8 -2 21.5 -7t36 -37t22.5 -79q0 -100 -108.5 -176t-313.5 -76 q-203 0 -336 94q-129 -94 -319 -94q-262 0 -390 161t-128 421zM446 547q0 -162 27 -217.5t86 -55.5q51 0 78 58.5t27 216.5q0 143 -27 198.5t-82 55.5t-82 -58.5t-27 -197.5zM1081 649l219 17v24q0 55 -24.5 86t-63.5 31q-59 0 -90.5 -33t-40.5 -125z" />
<glyph unicode="&#x178;" horiz-adv-x="1210" d="M0 1212q0 61 66.5 104.5t160.5 43.5q119 0 179.5 -43t97.5 -152q33 -94 66.5 -227t52.5 -221l18 -86l129 663q6 6 19.5 17.5t66.5 29t123 17.5q219 0 219 -148q0 -203 -139 -471t-223 -325v-310q0 -66 -53.5 -93t-178.5 -27q-231 0 -231 120v320q-37 57 -91.5 153.5 t-139.5 281.5t-142 353zM152 1618q0 172 206 172q211 0 211 -172q0 -170 -211 -170q-207 0 -206 170zM676 1618q0 172 207 172q211 0 211 -172q0 -170 -211 -170q-207 0 -207 170z" />
<glyph unicode="&#x2c6;" horiz-adv-x="1024" d="M117 1305q0 78 134 170t275 92q92 0 194.5 -54.5t160.5 -107.5l55 -53q0 -59 -54.5 -114.5t-142.5 -55.5q-82 0 -149.5 40t-93.5 78l-29 39l-178 -157h-2q-10 -4 -38 0t-57.5 10t-52 35.5t-22.5 77.5z" />
<glyph unicode="&#x2dc;" horiz-adv-x="1208" d="M219 1358q0 82 61.5 138t168.5 56q59 0 144 -36.5t128 -38.5q35 0 78 10t69 20l25 11q2 0 7 -2.5t17.5 -12.5t21.5 -24.5t16.5 -42t7.5 -62.5q0 -82 -57.5 -138t-166.5 -56q-63 0 -146 37.5t-130 37.5q-35 0 -79 -9t-69 -19l-26 -10q-2 0 -7.5 2t-17.5 12t-21.5 24.5 t-16.5 41t-7 61.5z" />
<glyph unicode="&#x2000;" horiz-adv-x="932" />
<glyph unicode="&#x2001;" horiz-adv-x="1864" />
<glyph unicode="&#x2002;" horiz-adv-x="932" />
<glyph unicode="&#x2003;" horiz-adv-x="1864" />
<glyph unicode="&#x2004;" horiz-adv-x="621" />
<glyph unicode="&#x2005;" horiz-adv-x="466" />
<glyph unicode="&#x2006;" horiz-adv-x="310" />
<glyph unicode="&#x2007;" horiz-adv-x="310" />
<glyph unicode="&#x2008;" horiz-adv-x="233" />
<glyph unicode="&#x2009;" horiz-adv-x="372" />
<glyph unicode="&#x200a;" horiz-adv-x="103" />
<glyph unicode="&#x2010;" horiz-adv-x="1013" d="M49 662q0 41 18.5 73.5t36.5 44.5l19 13q193 10 333 11t232 -10.5t148.5 -26.5t84 -45t36 -58.5t8.5 -75.5q0 -41 -18.5 -75t-37.5 -46l-18 -14q-164 -8 -292 -8.5t-216 5t-150.5 20.5t-98.5 32.5t-55.5 45t-24.5 52.5t-5 62z" />
<glyph unicode="&#x2011;" horiz-adv-x="1013" d="M49 662q0 41 18.5 73.5t36.5 44.5l19 13q193 10 333 11t232 -10.5t148.5 -26.5t84 -45t36 -58.5t8.5 -75.5q0 -41 -18.5 -75t-37.5 -46l-18 -14q-164 -8 -292 -8.5t-216 5t-150.5 20.5t-98.5 32.5t-55.5 45t-24.5 52.5t-5 62z" />
<glyph unicode="&#x2012;" horiz-adv-x="1013" d="M49 662q0 41 18.5 73.5t36.5 44.5l19 13q193 10 333 11t232 -10.5t148.5 -26.5t84 -45t36 -58.5t8.5 -75.5q0 -41 -18.5 -75t-37.5 -46l-18 -14q-164 -8 -292 -8.5t-216 5t-150.5 20.5t-98.5 32.5t-55.5 45t-24.5 52.5t-5 62z" />
<glyph unicode="&#x2013;" horiz-adv-x="1001" d="M37 629q0 59 18.5 100t36.5 53l19 11h671q86 0 128 -40t42 -137q0 -59 -18.5 -100t-36.5 -53l-18 -10h-674q-84 0 -126 39.5t-42 136.5z" />
<glyph unicode="&#x2014;" horiz-adv-x="1435" d="M37 629q0 59 18.5 100t36.5 53l19 11h1110q86 0 128 -40t42 -137q0 -59 -18.5 -100t-37.5 -53l-18 -10h-1112q-84 0 -126 39.5t-42 136.5z" />
<glyph unicode="&#x2018;" horiz-adv-x="587" d="M41 940q0 195 107.5 341t289.5 146q70 0 107 -31.5t41 -64.5l2 -31q-16 -14 -40 -37.5t-69 -96t-57 -142.5q6 2 17.5 2t40 -4t50 -17.5t40 -47t18.5 -85.5q0 -94 -66.5 -151t-187.5 -57q-293 0 -293 276z" />
<glyph unicode="&#x2019;" horiz-adv-x="587" d="M-2 791q16 14 39.5 37.5t69 96t57.5 142.5q-6 -2 -17.5 -2t-40 4t-50 17.5t-40 47t-18.5 85.5q0 94 66.5 151t187.5 57q293 0 293 -276q0 -195 -107.5 -341t-290.5 -146q-70 0 -106.5 31.5t-40.5 62.5z" />
<glyph unicode="&#x201a;" horiz-adv-x="671" d="M63 201q0 94 67 151.5t187 57.5q293 0 293 -277q0 -195 -107.5 -341t-289.5 -146q-70 0 -106.5 31.5t-40.5 64.5l-3 31q16 14 40 37.5t69 96.5t57 142q-6 -2 -17 -2t-40 4t-50.5 17.5t-40 47.5t-18.5 85z" />
<glyph unicode="&#x201c;" horiz-adv-x="1200" d="M41 940q0 195 107.5 341t289.5 146q70 0 107 -31.5t41 -64.5l2 -31q-16 -14 -40 -37.5t-69 -96t-57 -142.5q6 2 17.5 2t40 -4t50 -17.5t40 -47t18.5 -85.5q0 -94 -66.5 -151t-187.5 -57q-293 0 -293 276zM621 940q0 195 107.5 341t289.5 146q70 0 106.5 -31.5t38.5 -64.5 l4 -31q-16 -14 -39.5 -37.5t-68.5 -96t-58 -142.5q6 2 17.5 2t40 -4t50 -17.5t40 -47t18.5 -85.5q0 -94 -66.5 -151t-187.5 -57q-293 0 -292 276z" />
<glyph unicode="&#x201d;" horiz-adv-x="1200" d="M33 801q16 14 39.5 37.5t68.5 96.5t58 142q-6 -2 -17.5 -2t-40 4t-50 17.5t-40 47.5t-18.5 85q0 94 66.5 151.5t187.5 57.5q293 0 293 -277q0 -195 -107.5 -341t-290.5 -146q-70 0 -106.5 31.5t-38.5 64.5zM612 801q16 14 40 37.5t69 96.5t57 142q-6 -2 -17 -2t-40 4 t-50.5 17.5t-40 47.5t-18.5 85q0 94 66.5 151.5t187.5 57.5q293 0 293 -277q0 -195 -107.5 -341t-289.5 -146q-70 0 -107 31.5t-41 64.5z" />
<glyph unicode="&#x201e;" horiz-adv-x="1251" d="M63 201q0 94 67 151.5t187 57.5q293 0 293 -277q0 -195 -107.5 -341t-289.5 -146q-70 0 -106.5 31.5t-40.5 64.5l-3 31q16 14 40 37.5t69 96.5t57 142q-6 -2 -17 -2t-40 4t-50.5 17.5t-40 47.5t-18.5 85zM643 201q0 94 66.5 151.5t187.5 57.5q293 0 293 -277 q0 -195 -107.5 -341t-289.5 -146q-70 0 -107 31.5t-39 64.5l-4 31q16 14 40 37.5t69 96.5t57 142q-6 -2 -17.5 -2t-40 4t-50 17.5t-40 47.5t-18.5 85z" />
<glyph unicode="&#x2022;" horiz-adv-x="837" d="M121 643q0 137 65.5 202.5t219 65.5t220 -65.5t66.5 -202.5q0 -119 -69.5 -193.5t-217 -74.5t-216 74.5t-68.5 193.5z" />
<glyph unicode="&#x2026;" horiz-adv-x="1890" d="M61 180q0 213 258 213q263 0 263 -213q0 -211 -263 -211q-258 0 -258 211zM684 180q0 213 258 213q262 0 262 -213q0 -211 -262 -211q-258 0 -258 211zM1303 180q0 213 258 213q262 0 262 -213q0 -211 -262 -211q-258 0 -258 211z" />
<glyph unicode="&#x202f;" horiz-adv-x="372" />
<glyph unicode="&#x2039;" horiz-adv-x="649" d="M43 532q0 72 158.5 267.5t242.5 195.5q80 0 127 -46t47 -120q0 -51 -57 -124.5t-115 -122.5l-57 -50q18 -49 77.5 -124.5t108.5 -128.5l50 -52q0 -6 -2 -15t-14.5 -33.5t-31 -44t-57.5 -35t-90 -15.5q-96 0 -190.5 86t-145.5 189.5t-51 172.5z" />
<glyph unicode="&#x203a;" horiz-adv-x="649" d="M43 852q0 6 2 15.5t14.5 34t31 44t57 34.5t90.5 15q96 0 190 -86t145.5 -189.5t51.5 -172.5q0 -72 -159 -267.5t-243 -195.5q-80 0 -127 46t-47 120q0 51 57.5 125t114.5 123l58 49q-18 49 -78 126t-109 128z" />
<glyph unicode="&#x205f;" horiz-adv-x="466" />
<glyph unicode="&#x20ac;" horiz-adv-x="1224" d="M12 516q0 29 8.5 53.5t16.5 34.5l8 10h115v72h-51q-96 0 -97 107q0 27 8.5 51t16.5 37l8 10h139q53 236 211 351.5t398 115.5q106 0 191 -17.5t118 -33.5l33 -19q2 -6 6 -18.5t11 -47t9 -66.5t-4 -69.5t-23.5 -65.5t-54.5 -47.5t-92 -19.5q-47 0 -132 10.5t-116 10.5 q-106 0 -159 -84h278q55 0 82 -21.5t27 -83.5q0 -33 -10.5 -57t-18.5 -33l-10 -10h-391v-8q0 -43 2 -64h278q55 0 82 -21.5t27 -82.5q0 -33 -10.5 -58.5t-18.5 -33.5l-10 -8h-289q66 -88 233 -88q74 0 140.5 11t97.5 21l29 11q8 -4 19 -12.5t29.5 -51.5t18.5 -102 q0 -229 -391 -230q-236 0 -386 114t-204 327h-75q-96 0 -97 106z" />
<glyph unicode="&#x2122;" horiz-adv-x="1869" d="M31 1219q0 33 11 62.5t24 43.5l10 14h540q113 0 113 -129q0 -37 -14.5 -66.5t-28.5 -41.5l-14 -10h-135v-508q0 -47 -35 -65.5t-121 -18.5q-160 0 -160 84v508h-69q-121 0 -121 127zM750 545q18 475 36 663q6 72 55.5 109t164.5 37q113 0 158.5 -39t58.5 -111l67 -385 l72 389q14 78 60 112t169 34q195 0 211 -150q8 -98 17.5 -247.5t15.5 -251.5l4 -101q0 -104 -143 -104q-47 0 -83 12t-48 25l-15 14l-12 524l-68 -444q-10 -57 -60 -94t-130 -37q-176 0 -201 133l-78 444l-4 -491q-2 -86 -127 -86q-39 0 -68.5 11t-39.5 21z" />
<glyph unicode="&#x25fc;" horiz-adv-x="1126" d="M0 0v1126h1126v-1126h-1126z" />
<glyph unicode="&#xfb01;" horiz-adv-x="1376" d="M6 852l10 86l129 49q-90 115 -90 223q0 127 84 197t230 76q129 0 258 -42t182 -42q57 0 85 33.5t28 68.5l-2 35q61 31 153 31q123 0 180.5 -48.5t57.5 -161t-88 -186t-299 -73.5q-80 0 -215.5 23.5t-194.5 17.5t-59 -66q0 -14 7 -30.5t13 -26.5l8 -8h207q92 0 92 -158 q0 -49 -11 -91t-21 -59l-13 -16h-174v-590q0 -59 -49 -84.5t-166 -25.5q-215 0 -215 110v590q-131 0 -127 168zM866 94v807q0 55 49.5 81t163.5 26q217 -1 217 -107v-807q0 -59 -49 -84.5t-166 -25.5q-215 0 -215 110z" />
<glyph unicode="&#xfb02;" horiz-adv-x="1409" d="M6 852l10 86l129 49q-90 115 -90 223q0 272 336 273q106 0 224 -24.5t184 -49.5l65 -27v121q78 43 209 43q262 0 262 -207q0 -90 -41 -139v-903q0 -23 20.5 -33t41.5 -10l22 2q4 -10 9.5 -28.5t6.5 -65.5t-16.5 -83t-74 -65.5t-148.5 -29.5q-137 0 -214 69.5t-77 202.5 v848q-63 0 -135 8t-116 14.5t-84 7.5t-57 -13.5t-17 -47.5q0 -14 7 -30.5t13 -26.5l8 -8h207q92 0 92 -158q0 -49 -11 -91t-21 -59l-13 -16h-174v-590q0 -59 -49 -84.5t-166 -25.5q-215 0 -215 110v590q-131 0 -127 168z" />
</font>
</defs>
</svg>
